<svg xmlns="http://www.w3.org/2000/svg" width="18" height="18" viewBox="0 0 18 18">
  <g id="about" transform="translate(-1555 -295)">
    <rect id="Rectangle_10071" data-name="Rectangle 10071" width="18" height="18" transform="translate(1555 295)" fill="#6b6b6b" opacity="0"/>
    <g id="noun_about_3131396" transform="translate(1551.396 291.396)">
      <path id="Path_16764" data-name="Path 16764" d="M11.645,8.945A.859.859,0,1,1,12.5,9.8a.859.859,0,0,1-.859-.859Zm2.2,7.327c-.243-.078-.54-.306-.54-.958V11.034a.116.116,0,0,0-.116-.116H11.486a.435.435,0,0,0-.435.435.439.439,0,0,0,.311.417c.243.078.54.306.54.958v2.585c0,.652-.3.88-.54.958a.439.439,0,0,0-.311.416.435.435,0,0,0,.435.435h2.238a.435.435,0,0,0,.435-.435A.439.439,0,0,0,13.847,16.272ZM20.209,12.6A7.6,7.6,0,1,1,12.6,5a7.6,7.6,0,0,1,7.6,7.6Zm-1.014,0A6.591,6.591,0,1,0,12.6,19.2,6.591,6.591,0,0,0,19.2,12.6Z" fill="#6b6b6b"/>
    </g>
  </g>
</svg>
