<svg xmlns="http://www.w3.org/2000/svg" width="26.135" height="20.518" viewBox="0 0 26.135 20.518"><defs><style>.a{fill:#df2b5c;}</style></defs><g transform="translate(0 0)"><path class="a" d="M21.775,61.83A8.983,8.983,0,0,0,4.1,63.365,4.9,4.9,0,0,0,4.92,73.1H9V71.466H4.92a3.267,3.267,0,1,1,0-6.533.817.817,0,0,0,.817-.817A7.35,7.35,0,0,1,20.3,62.688a.817.817,0,0,0,.694.653,4.083,4.083,0,0,1-.555,8.126H17.169V73.1h3.267a5.716,5.716,0,0,0,1.339-11.27Z" transform="translate(0 -55.032)"/><path class="a" d="M184.3,249.248l-3.267,3.267,1.151,1.151,1.878-1.87v7.832H185.7V251.8l1.87,1.87,1.152-1.151-3.267-3.267A.817.817,0,0,0,184.3,249.248Z" transform="translate(-171.795 -239.11)"/></g></svg>