<svg xmlns="http://www.w3.org/2000/svg" width="18" height="18" viewBox="0 0 18 18">
  <g id="contactw" transform="translate(-1555 -295)">
    <rect id="Rectangle_10071" data-name="Rectangle 10071" width="18" height="18" transform="translate(1555 295)" fill="#fff" opacity="0"/>
    <g id="noun_Telephone_3535313" transform="translate(1551.752 293.065)">
      <path id="Path_16763" data-name="Path 16763" d="M14.888,19.132h0c-2.283,0-4.525-1.878-6.662-5.581-1.836-3.179-2.467-5.769-1.877-7.7A4.3,4.3,0,0,1,8.72,3.224c.048-.024.087-.042.111-.056a1.868,1.868,0,0,1,.906-.255,1.129,1.129,0,0,1,1.019.574l1.41,2.443c.374.647.109,1.314-.708,1.787L10.6,8.21c-.643.371.082,2.319.775,3.52.516.892,1.954,2.838,2.661,2.432l.853-.493c.8-.463,1.536-.354,1.9.281l1.41,2.442a1.356,1.356,0,0,1-.686,1.826c-.025.014-.059.038-.1.068A4.452,4.452,0,0,1,14.888,19.132ZM9.736,3.421a1.342,1.342,0,0,0-.652.188c-.032.017-.08.041-.143.071A3.769,3.769,0,0,0,6.834,6C6.287,7.792,6.9,10.245,8.665,13.3c2.011,3.485,4.163,5.327,6.223,5.327a3.919,3.919,0,0,0,2.243-.758c.058-.039.1-.069.134-.088.3-.172.789-.632.5-1.131L16.355,14.2c-.232-.4-.664-.408-1.208-.1l-.854.493a.91.91,0,0,1-.462.123c-1.294,0-2.827-2.627-2.892-2.74-.081-.139-1.956-3.425-.589-4.214l.853-.493c.395-.227.806-.6.522-1.093L10.314,3.741A.614.614,0,0,0,9.736,3.421Z" fill="#fff" stroke="#fff" stroke-width="0.5"/>
    </g>
  </g>
</svg>
