<svg xmlns="http://www.w3.org/2000/svg" xmlns:xlink="http://www.w3.org/1999/xlink" width="62.114" height="73.562" viewBox="0 0 62.114 73.562"><defs><style>.a{fill:none;}.b{isolation:isolate;}.c{clip-path:url(#a);}.d{fill:#9a999a;}.e{fill:#959495;}.f{fill:#908f90;}.g{fill:#8b8a8b;}.h{fill:#868586;}.i{fill:#818081;}.j{clip-path:url(#b);}.k{clip-path:url(#c);}.l{fill:#9f9e9f;}.m{fill:#7d7c7c;}.n{clip-path:url(#d);}.o{clip-path:url(#e);}.p{fill:#949293;}.q{fill:#d9d7d8;}.r{clip-path:url(#f);}.s{clip-path:url(#g);}.t{clip-path:url(#h);}.u{clip-path:url(#i);}.v{clip-path:url(#j);}.w{fill:#d8d7d8;}.x{clip-path:url(#k);}.y{clip-path:url(#l);}.z{clip-path:url(#m);}.aa{clip-path:url(#n);}.ab{clip-path:url(#o);}.ac{clip-path:url(#p);}.ad{clip-path:url(#q);}.ae{clip-path:url(#r);}.af{clip-path:url(#s);}</style><clipPath id="a"><path class="a" d="M345.334,719.38l-.612-.494a36.046,36.046,0,0,0,7.62.534c6.6-.216,13.249-2.087,17.96-5.221l.612.494c-4.712,3.134-11.362,5.005-17.96,5.221A36.037,36.037,0,0,1,345.334,719.38Z" transform="translate(-344.722 -714.198)"/></clipPath><clipPath id="b"><path class="a" d="M605.014,327.376l.612.494a24.787,24.787,0,0,1,9.159,22.164c-.722,5.832,2.205,10.469,4.977,14.512l-.612-.494c-2.771-4.043-5.7-8.679-4.976-14.512A24.788,24.788,0,0,0,605.014,327.376Z" transform="translate(-605.014 -327.376)"/></clipPath><clipPath id="c"><path class="a" d="M563.314,191.825l.612.494a30.3,30.3,0,0,0-13.743-6.334l-.612-.494A30.3,30.3,0,0,1,563.314,191.825Z" transform="translate(-549.571 -185.491)"/></clipPath><clipPath id="d"><path class="a" d="M305.126,178.738l-.612-.494c2.715.018,5.452-.072,8.189-.161l.506-.017c6.075-.2,12.146-.364,17.99.677l.612.494c-5.845-1.041-11.916-.876-17.99-.677l-.506.016C310.579,178.666,307.841,178.755,305.126,178.738Z" transform="translate(-304.514 -177.918)"/></clipPath><clipPath id="e"><path class="a" d="M268.925,243.427l-.612-.494c-10.327-15.329-21.4-30.854-31.784-46.268-1.963-2.915-4.285-8.39-6.26-11.322l.612.494c1.975,2.932,4.3,8.407,6.26,11.322C247.523,212.572,258.6,228.1,268.925,243.427Z" transform="translate(-230.269 -185.343)"/></clipPath><clipPath id="f"><path class="a" d="M578.942,377.92l-.185-.156c4.184-.043,7.212-4.92,3.815-9.265l.185.156C586.154,373,583.126,377.877,578.942,377.92Z" transform="translate(-578.757 -368.5)"/></clipPath><clipPath id="g"><path class="a" d="M547,442.206l-.185-.156a5.306,5.306,0,0,0,3.113,1.247q.184.01.366.008l.185.156c-.121,0-.243,0-.366-.008A5.307,5.307,0,0,1,547,442.206Z" transform="translate(-546.811 -442.05)"/></clipPath><clipPath id="h"><path class="a" d="M578.092,362.118l-.185-.156a5.6,5.6,0,0,1,3.417,1.209l.185.156A5.6,5.6,0,0,0,578.092,362.118Z" transform="translate(-577.907 -361.962)"/></clipPath><clipPath id="i"><path class="a" d="M581.659,351.688l.185.156a5.885,5.885,0,0,0-3.862-1.387l-.185-.156A5.884,5.884,0,0,1,581.659,351.688Z" transform="translate(-577.797 -350.3)"/></clipPath><clipPath id="j"><path class="a" d="M537.1,370.207l-.185-.156c-2.957-3.8-.328-8.049,3.326-8.087l.185.156C536.774,362.157,534.145,366.4,537.1,370.207Z" transform="translate(-535.641 -361.964)"/></clipPath><clipPath id="k"><path class="a" d="M526.277,374.309l-.185-.156c-2.257-1.9-3.08-5.458-.562-8.806l.185.156C523.2,368.851,524.02,372.409,526.277,374.309Z" transform="translate(-523.983 -365.347)"/></clipPath><clipPath id="l"><path class="a" d="M538.368,352.1l-.185-.156A7.087,7.087,0,0,1,542.5,350.3l.185.156A7.089,7.089,0,0,0,538.368,352.1Z" transform="translate(-538.183 -350.303)"/></clipPath><clipPath id="m"><path class="a" d="M434.382,623.58l-.185-.156c4.184-.043,7.212-4.921,3.815-9.265l.185.156C441.594,618.659,438.566,623.537,434.382,623.58Z" transform="translate(-434.197 -614.16)"/></clipPath><clipPath id="n"><path class="a" d="M402.44,687.866l-.185-.156a5.306,5.306,0,0,0,3.113,1.247c.123.007.245.01.366.008l.185.156q-.181,0-.366-.009A5.305,5.305,0,0,1,402.44,687.866Z" transform="translate(-402.255 -687.71)"/></clipPath><clipPath id="o"><path class="a" d="M433.531,607.774l-.185-.156a5.6,5.6,0,0,1,3.417,1.209l.185.156A5.6,5.6,0,0,0,433.531,607.774Z" transform="translate(-433.346 -607.618)"/></clipPath><clipPath id="p"><path class="a" d="M437.1,597.347l.185.156a5.884,5.884,0,0,0-3.862-1.387l-.185-.156A5.885,5.885,0,0,1,437.1,597.347Z" transform="translate(-433.238 -595.959)"/></clipPath><clipPath id="q"><path class="a" d="M392.545,615.862l-.185-.156c-2.957-3.8-.328-8.049,3.326-8.086l.185.156C392.217,607.813,389.588,612.06,392.545,615.862Z" transform="translate(-391.084 -607.62)"/></clipPath><clipPath id="r"><path class="a" d="M381.717,619.967l-.185-.156c-2.257-1.9-3.08-5.457-.562-8.805l.185.156C378.637,614.51,379.46,618.068,381.717,619.967Z" transform="translate(-379.424 -611.006)"/></clipPath><clipPath id="s"><path class="a" d="M393.808,597.756l-.185-.156a7.088,7.088,0,0,1,4.314-1.638l.185.156A7.088,7.088,0,0,0,393.808,597.756Z" transform="translate(-393.623 -595.962)"/></clipPath></defs><g transform="translate(-230.269 -177.918)"><g transform="translate(230.269 177.918)"><g transform="translate(0)"><g class="b"><g class="b" transform="translate(12.463 58.398)"><g class="c"><g class="b"><path class="d" d="M345.334,757.738l-.612-.494q.807.148,1.631.255l.612.494q-.823-.108-1.631-.255" transform="translate(-344.722 -752.557)"/><path class="e" d="M360.31,760.08l-.612-.494a36.988,36.988,0,0,0,5.989.279l.369-.014.612.494-.369.014a37.008,37.008,0,0,1-5.989-.279" transform="translate(-358.067 -754.643)"/><path class="f" d="M418.7,756.293l-.612-.494a40.447,40.447,0,0,0,6.276-.76l.612.494a40.446,40.446,0,0,1-6.276.76" transform="translate(-410.1 -750.592)"/><path class="g" d="M476.331,742.36l-.612-.494a37.016,37.016,0,0,0,5.667-1.61l.612.494a36.995,36.995,0,0,1-5.667,1.61" transform="translate(-461.454 -737.418)"/><path class="h" d="M528.373,721.914l-.612-.494a28.916,28.916,0,0,0,4.8-2.3l.612.494a28.906,28.906,0,0,1-4.8,2.3" transform="translate(-507.829 -718.582)"/><path class="i" d="M572.486,715.228l-.612-.494q.432-.261.844-.536l.612.494q-.412.274-.844.536" transform="translate(-547.138 -714.198)"/></g></g></g><g class="b" transform="translate(40.808 16.275)"><g class="j"><g class="b"><path class="i" d="M619.762,364.545l-.612-.494c-2.771-4.043-5.7-8.679-4.976-14.512a24.788,24.788,0,0,0-9.159-22.164l.612.494a24.787,24.787,0,0,1,9.159,22.164c-.722,5.832,2.205,10.469,4.977,14.512" transform="translate(-605.014 -327.376)"/></g></g></g><g class="b" transform="translate(34.771 0.825)"><g class="k"><g class="b"><path class="d" d="M550.183,185.985l-.612-.494a29.558,29.558,0,0,1,5.41,1.506l.612.494a29.565,29.565,0,0,0-5.41-1.506" transform="translate(-549.571 -185.491)"/><path class="l" d="M599.864,199.817l-.612-.494a30.918,30.918,0,0,1,8.333,4.827l.612.494a30.92,30.92,0,0,0-8.333-4.828" transform="translate(-593.842 -197.817)"/></g></g></g><g transform="translate(0.633 13.107)"><path class="m" d="M236.7,357.891l-.612-.494.335-59.112.612.494Z" transform="translate(-236.085 -298.284)"/></g><g class="b" transform="translate(8.085)"><g class="n"><g class="b" transform="translate(0 0)"><path class="e" d="M305.126,178.738l-.612-.494c2.715.018,5.452-.072,8.189-.161l.506-.017a98.453,98.453,0,0,1,15.9.355l.612.494a98.454,98.454,0,0,0-15.9-.355l-.506.016c-2.737.09-5.475.179-8.189.161" transform="translate(-304.514 -177.918)"/><path class="d" d="M530.957,183.028l-.612-.494q1.051.138,2.094.322l.612.494q-1.042-.186-2.093-.322" transform="translate(-505.753 -182.031)"/></g></g></g><g class="b" transform="translate(0 0.809)"><g class="o"><g class="b"><path class="i" d="M268.925,243.427l-.612-.494c-10.327-15.329-21.4-30.854-31.784-46.268-1.963-2.915-4.285-8.39-6.26-11.322l.612.494c1.975,2.932,4.3,8.407,6.26,11.322,10.382,15.413,21.457,30.939,31.784,46.268" transform="translate(-230.269 -185.343)"/></g></g></g><g transform="translate(0 0.325)"><path class="p" d="M230.882,181.884l-.612-.494,8.085-.483.612.494Z" transform="translate(-230.269 -180.907)"/></g><g transform="translate(0.612 0.494)"><path class="q" d="M270.662,183.28c21.13,3.767,33.324,29.617,23,48.366l-2.823,3.76c-2.772-4.043-5.7-8.679-4.977-14.512,1.748-14.127-9.56-28.425-26.79-27.861a32.138,32.138,0,0,0-4.56.483l28.982,40.7,3.5,5.01.125.956c-5.171,9-19.954,14.786-35.676,15.3a67.57,67.57,0,0,1-12.645-.757l-2.271-.054.335-59.112c3.677,6.493,11.315,18.1,11.061,26.546-.237,7.833.261,15.682.434,23.433a36.042,36.042,0,0,0,7.62.534c6.6-.216,13.249-2.087,17.96-5.221-10.327-15.329-21.4-30.855-31.784-46.268-1.963-2.915-4.285-8.39-6.26-11.322l8.085-.483c2.715.018,5.452-.072,8.189-.161l.506-.016C258.747,182.4,264.818,182.239,270.662,183.28Z" transform="translate(-235.892 -182.455)"/></g></g></g></g><g transform="translate(262.253 196.69)"><g transform="translate(0 0)"><g class="b"><g class="b" transform="translate(5.965 1.982)"><g class="r"><g class="b"><path class="f" d="M578.942,453.716l-.185-.156.108,0,.185.156-.108,0" transform="translate(-578.757 -444.296)"/><path class="g" d="M579.936,452.947l-.185-.156a5.318,5.318,0,0,0,.848-.094l.185.156a5.352,5.352,0,0,1-.848.094" transform="translate(-579.643 -443.529)"/><path class="h" d="M587.722,450.616l-.185-.156a5.291,5.291,0,0,0,.94-.273l.185.156a5.294,5.294,0,0,1-.94.273" transform="translate(-586.581 -441.292)"/><path class="i" d="M596.356,377.551l-.185-.156c3.092-1.219,4.773-5.246,1.919-8.9l.185.156c2.854,3.65,1.173,7.676-1.919,8.9" transform="translate(-594.275 -368.5)"/></g></g></g><g class="b" transform="translate(2.486 9.991)"><g class="s"><g class="b"><path class="l" d="M547,442.206l-.185-.156a5.408,5.408,0,0,0,.824.572l.185.156a5.4,5.4,0,0,1-.824-.572" transform="translate(-546.811 -442.05)"/><path class="d" d="M554.56,447.459l-.185-.156a5.327,5.327,0,0,0,1.076.46l.185.156a5.311,5.311,0,0,1-1.076-.46" transform="translate(-553.551 -446.731)"/><path class="e" d="M564.443,451.684l-.185-.156a5.239,5.239,0,0,0,.86.183l.185.156a5.214,5.214,0,0,1-.86-.183" transform="translate(-562.358 -450.496)"/><path class="f" d="M572.343,453.361l-.185-.156q.175.022.353.032t.366.008l.185.156c-.121,0-.243,0-.366-.008s-.236-.018-.353-.032" transform="translate(-569.398 -451.99)"/></g></g></g><g class="b" transform="translate(5.872 1.27)"><g class="t"><g class="b" transform="translate(0 0)"><path class="f" d="M578.092,362.118l-.185-.156a4.856,4.856,0,0,1,.652.038l.185.156a4.833,4.833,0,0,0-.652-.038" transform="translate(-577.907 -361.962)"/><path class="e" d="M584.08,362.466l-.185-.156a5.147,5.147,0,0,1,.843.18l.185.156a5.144,5.144,0,0,0-.843-.18" transform="translate(-583.243 -362.272)"/><path class="d" d="M591.821,364.115l-.185-.156a5.839,5.839,0,0,1,1.178.506l.185.156a5.834,5.834,0,0,0-1.178-.506" transform="translate(-590.141 -363.742)"/><path class="l" d="M602.643,368.764l-.185-.156a6.91,6.91,0,0,1,.743.485l.185.156a6.884,6.884,0,0,0-.743-.485" transform="translate(-599.784 -367.884)"/></g></g></g><g class="b" transform="translate(5.86)"><g class="u"><g class="b" transform="translate(0 0)"><path class="f" d="M577.982,350.456l-.185-.156a5.931,5.931,0,0,1,.8.046l.185.156a5.949,5.949,0,0,0-.8-.046" transform="translate(-577.797 -350.3)"/><path class="e" d="M585.366,350.882l-.185-.156a5.86,5.86,0,0,1,.966.205l.185.156a5.864,5.864,0,0,0-.966-.205" transform="translate(-584.377 -350.68)"/><path class="d" d="M594.234,352.767l-.185-.156a5.876,5.876,0,0,1,1.183.505l.185.156a5.883,5.883,0,0,0-1.183-.505" transform="translate(-592.279 -352.359)"/><path class="l" d="M605.1,357.408l-.185-.156a5.934,5.934,0,0,1,.909.63l.185.156a5.948,5.948,0,0,0-.909-.631" transform="translate(-601.963 -356.495)"/></g></g></g><g class="b" transform="translate(1.269 1.27)"><g class="v"><g class="b" transform="translate(0)"><path class="i" d="M537.1,372.846l-.185-.156c-2.484-3.194-1.027-6.7,1.669-7.764l.185.156c-2.7,1.063-4.152,4.57-1.669,7.764" transform="translate(-535.64 -364.603)"/><path class="h" d="M562.871,363.128l-.185-.156a4.62,4.62,0,0,1,.821-.239l.185.156a4.619,4.619,0,0,0-.821.239" transform="translate(-559.741 -362.65)"/><path class="g" d="M570.41,362.22l-.185-.156a4.67,4.67,0,0,1,.742-.082l.185.156a4.668,4.668,0,0,0-.742.082" transform="translate(-566.459 -361.98)"/><path class="f" d="M577.222,362.122l-.185-.156.095,0,.185.156-.095,0" transform="translate(-572.529 -361.964)"/></g></g></g><g transform="translate(1.454 1.426)"><path class="w" d="M541.941,363.392a5.6,5.6,0,0,1,3.417,1.209c2.951,3.8.323,8.047-3.33,8.084a5.6,5.6,0,0,1-3.413-1.206C535.658,367.676,538.287,363.43,541.941,363.392Z" transform="translate(-537.339 -363.392)"/></g><g class="b" transform="translate(0 1.639)"><g class="x"><g class="b"><path class="i" d="M526.277,374.309l-.185-.156c-2.257-1.9-3.08-5.458-.562-8.806l.185.156c-2.518,3.349-1.695,6.907.562,8.806" transform="translate(-523.983 -365.347)"/></g></g></g><g transform="translate(0.185 0.156)"><path class="w" d="M531.542,351.729a5.916,5.916,0,0,1,.881,11.775,6.1,6.1,0,0,1-.771.057c-4.644.048-8.106-5.3-4.424-10.193A7.088,7.088,0,0,1,531.542,351.729Zm.1,11.246c4.184-.043,7.212-4.92,3.815-9.265a6.377,6.377,0,0,0-3.914-1.4,5.331,5.331,0,0,0-.267,10.652c.123.007.245.01.366.008" transform="translate(-525.682 -351.729)"/></g><g class="b" transform="translate(1.546 0)"><g class="y"><g class="b"><path class="i" d="M538.368,355.821l-.185-.156a8.065,8.065,0,0,1,2.034-1.183l.185.156a8.069,8.069,0,0,0-2.034,1.183" transform="translate(-538.183 -354.027)"/><path class="h" d="M557.043,351.816l-.185-.156a6.671,6.671,0,0,1,1.186-.345l.185.156a6.678,6.678,0,0,0-1.186.345" transform="translate(-554.824 -351.206)"/><path class="g" d="M567.932,350.589l-.185-.156a6.175,6.175,0,0,1,.975-.108l.185.156a6.185,6.185,0,0,0-.976.108" transform="translate(-564.528 -350.323)"/><path class="f" d="M576.89,350.461l-.185-.156.119,0,.185.156-.119,0" transform="translate(-572.51 -350.303)"/></g></g></g></g></g></g><g transform="translate(246.511 223.441)"><g transform="translate(0)"><g class="b"><g class="b" transform="translate(5.965 1.982)"><g class="z"><g class="b"><path class="f" d="M434.382,699.376l-.185-.156.108,0,.185.156-.108,0" transform="translate(-434.197 -689.956)"/><path class="g" d="M435.376,698.607l-.185-.156a5.358,5.358,0,0,0,.848-.094l.185.156a5.315,5.315,0,0,1-.848.094" transform="translate(-435.083 -689.189)"/><path class="h" d="M443.16,696.276l-.185-.156a5.293,5.293,0,0,0,.94-.273l.185.156a5.282,5.282,0,0,1-.94.273" transform="translate(-442.019 -686.952)"/><path class="i" d="M451.794,623.211l-.185-.156c3.092-1.219,4.773-5.246,1.919-8.9l.185.156c2.854,3.649,1.173,7.676-1.919,8.9" transform="translate(-449.713 -614.16)"/></g></g></g><g class="b" transform="translate(2.486 9.991)"><g class="aa"><g class="b"><path class="l" d="M402.44,687.866l-.185-.156a5.409,5.409,0,0,0,.824.572l.185.156a5.407,5.407,0,0,1-.824-.572" transform="translate(-402.255 -687.71)"/><path class="d" d="M410.006,693.119l-.185-.156a5.313,5.313,0,0,0,1.076.46l.185.156a5.322,5.322,0,0,1-1.076-.46" transform="translate(-408.997 -692.391)"/><path class="e" d="M419.888,697.344l-.185-.156a5.228,5.228,0,0,0,.86.183l.185.156a5.224,5.224,0,0,1-.86-.183" transform="translate(-417.803 -696.156)"/><path class="f" d="M427.785,699.021l-.185-.156q.175.022.353.032t.366.009l.185.156c-.121,0-.243,0-.366-.009s-.236-.017-.353-.032" transform="translate(-424.84 -697.65)"/></g></g></g><g class="b" transform="translate(5.872 1.27)"><g class="ab"><g class="b" transform="translate(0 0)"><path class="f" d="M433.531,607.774l-.185-.156a4.83,4.83,0,0,1,.652.038l.185.156a4.811,4.811,0,0,0-.652-.038" transform="translate(-433.346 -607.618)"/><path class="e" d="M439.516,608.122l-.185-.156a5.14,5.14,0,0,1,.843.18l.185.156a5.139,5.139,0,0,0-.843-.18" transform="translate(-438.679 -607.928)"/><path class="d" d="M447.256,609.771l-.185-.156a5.846,5.846,0,0,1,1.178.506l.185.156a5.835,5.835,0,0,0-1.178-.506" transform="translate(-445.576 -609.398)"/><path class="l" d="M458.078,614.42l-.185-.156a6.891,6.891,0,0,1,.744.485l.185.156a6.9,6.9,0,0,0-.744-.486" transform="translate(-455.22 -613.54)"/></g></g></g><g class="b" transform="translate(5.86)"><g class="ac"><g class="b" transform="translate(0 0)"><path class="f" d="M433.423,596.115l-.185-.156a5.953,5.953,0,0,1,.8.046l.185.156a5.931,5.931,0,0,0-.8-.046" transform="translate(-433.238 -595.959)"/><path class="e" d="M440.807,596.541l-.185-.156a5.866,5.866,0,0,1,.966.205l.185.156a5.869,5.869,0,0,0-.966-.205" transform="translate(-439.818 -596.339)"/><path class="d" d="M449.675,598.427l-.185-.156a5.886,5.886,0,0,1,1.183.505l.185.156a5.872,5.872,0,0,0-1.183-.505" transform="translate(-447.72 -598.019)"/><path class="l" d="M460.541,603.067l-.185-.156a5.946,5.946,0,0,1,.909.631l.185.156a5.927,5.927,0,0,0-.909-.63" transform="translate(-457.403 -602.154)"/></g></g></g><g class="b" transform="translate(1.27 1.27)"><g class="ad"><g class="b" transform="translate(0)"><path class="i" d="M392.545,618.5l-.185-.156c-2.483-3.194-1.026-6.7,1.669-7.764l.185.156c-2.7,1.063-4.152,4.57-1.669,7.764" transform="translate(-391.084 -610.259)"/><path class="h" d="M418.313,608.784l-.185-.156a4.611,4.611,0,0,1,.821-.239l.185.156a4.621,4.621,0,0,0-.821.239" transform="translate(-415.183 -608.306)"/><path class="g" d="M425.851,607.875l-.185-.156a4.659,4.659,0,0,1,.742-.082l.185.156a4.674,4.674,0,0,0-.742.082" transform="translate(-421.9 -607.636)"/><path class="f" d="M432.661,607.778l-.185-.156.095,0,.185.156-.095,0" transform="translate(-427.969 -607.62)"/></g></g></g><g transform="translate(1.455 1.425)"><path class="w" d="M397.385,609.048a5.6,5.6,0,0,1,3.417,1.209c2.951,3.8.323,8.046-3.33,8.084a5.6,5.6,0,0,1-3.413-1.206C391.1,613.332,393.731,609.085,397.385,609.048Z" transform="translate(-392.783 -609.048)"/></g><g class="b" transform="translate(0 1.639)"><g class="ae"><g class="b"><path class="i" d="M381.717,619.967l-.185-.156c-2.257-1.9-3.08-5.457-.562-8.805l.185.156c-2.518,3.349-1.695,6.906.562,8.805" transform="translate(-379.424 -611.006)"/></g></g></g><g transform="translate(0.185 0.156)"><path class="w" d="M386.982,597.389a5.916,5.916,0,0,1,.881,11.774,6.116,6.116,0,0,1-.771.057c-4.644.048-8.105-5.3-4.424-10.193A7.087,7.087,0,0,1,386.982,597.389Zm.1,11.246c4.184-.043,7.212-4.921,3.815-9.265a6.377,6.377,0,0,0-3.914-1.4,5.331,5.331,0,0,0-.267,10.652q.184.011.366.009" transform="translate(-381.122 -597.389)"/></g><g class="b" transform="translate(1.546 0)"><g class="af"><g class="b"><path class="i" d="M393.808,601.48l-.185-.156a8.07,8.07,0,0,1,2.034-1.183l.185.156a8.067,8.067,0,0,0-2.034,1.183" transform="translate(-393.623 -599.686)"/><path class="h" d="M412.484,597.475l-.185-.156a6.684,6.684,0,0,1,1.186-.345l.185.156a6.683,6.683,0,0,0-1.186.345" transform="translate(-410.265 -596.865)"/><path class="g" d="M423.372,596.248l-.185-.156a6.2,6.2,0,0,1,.976-.108l.185.156a6.183,6.183,0,0,0-.975.108" transform="translate(-419.968 -595.982)"/><path class="f" d="M432.331,596.12l-.185-.156.119,0,.185.156-.119,0" transform="translate(-427.951 -595.962)"/></g></g></g></g></g></g></g></svg>