<svg xmlns="http://www.w3.org/2000/svg" xmlns:xlink="http://www.w3.org/1999/xlink" width="96.999" height="109.716" viewBox="0 0 96.999 109.716"><defs><style>.a{fill:none;}.b{fill:#e01055;stroke:#f7f7f7;stroke-miterlimit:10;stroke-width:0.25px;}.c{fill:url(#a);}.d{isolation:isolate;}.e{clip-path:url(#b);}.f{fill:#9a999a;}.g{fill:#959495;}.h{fill:#908f90;}.i{fill:#8b8a8b;}.j{fill:#868586;}.k{fill:#818081;}.l{clip-path:url(#c);}.m{clip-path:url(#d);}.n{fill:#9f9e9f;}.o{fill:#7d7c7c;}.p{clip-path:url(#e);}.q{clip-path:url(#f);}.r{fill:#949293;}.s{fill:#d9d7d8;}.t{clip-path:url(#g);}.u{clip-path:url(#h);}.v{clip-path:url(#i);}.w{clip-path:url(#j);}.x{clip-path:url(#k);}.y{fill:#d8d7d8;}.z{clip-path:url(#l);}.aa{clip-path:url(#m);}.ab{clip-path:url(#n);}.ac{clip-path:url(#o);}.ad{clip-path:url(#p);}.ae{clip-path:url(#q);}.af{clip-path:url(#r);}.ag{clip-path:url(#s);}.ah{clip-path:url(#t);}</style><linearGradient id="a" x1="0.009" y1="0.009" x2="0.991" y2="0.991" gradientUnits="objectBoundingBox"><stop offset="0" stop-color="#ec053e"/><stop offset="0.135" stop-color="#e41d51"/><stop offset="0.421" stop-color="#cf5b83"/><stop offset="0.831" stop-color="#afbdd3"/><stop offset="1" stop-color="#a2e8f6"/></linearGradient><clipPath id="b"><path class="a" d="M345.255,718.711l-.533-.43a31.4,31.4,0,0,0,6.637.465A31.01,31.01,0,0,0,367,714.2l.533.43a31.011,31.011,0,0,1-15.645,4.548A31.4,31.4,0,0,1,345.255,718.711Z" transform="translate(-344.722 -714.198)"/></clipPath><clipPath id="c"><path class="a" d="M605.014,327.376l.533.43a21.591,21.591,0,0,1,7.978,19.306c-.629,5.08,1.921,9.119,4.335,12.641l-.533-.43c-2.414-3.521-4.964-7.56-4.335-12.641A21.592,21.592,0,0,0,605.014,327.376Z" transform="translate(-605.014 -327.376)"/></clipPath><clipPath id="d"><path class="a" d="M561.542,191.008l.533.43a26.392,26.392,0,0,0-11.971-5.517l-.533-.43A26.392,26.392,0,0,1,561.542,191.008Z" transform="translate(-549.571 -185.491)"/></clipPath><clipPath id="e"><path class="a" d="M305.047,178.632l-.533-.43c2.365.015,4.749-.063,7.133-.14l.441-.014c5.292-.173,10.58-.317,15.671.59l.533.43c-5.091-.907-10.379-.763-15.671-.59l-.441.014C309.8,178.57,307.412,178.647,305.047,178.632Z" transform="translate(-304.514 -177.918)"/></clipPath><clipPath id="f"><path class="a" d="M263.941,235.938l-.533-.43c-9-13.352-18.642-26.876-27.686-40.3-1.71-2.539-3.732-7.308-5.453-9.862l.533.43c1.72,2.554,3.743,7.323,5.453,9.862C245.3,209.062,254.946,222.585,263.941,235.938Z" transform="translate(-230.269 -185.343)"/></clipPath><clipPath id="g"><path class="a" d="M578.918,376.706l-.161-.136c3.645-.037,6.282-4.286,3.323-8.07l.161.136C585.2,372.42,582.563,376.668,578.918,376.706Z" transform="translate(-578.757 -368.5)"/></clipPath><clipPath id="h"><path class="a" d="M546.972,442.186l-.161-.136a4.622,4.622,0,0,0,2.712,1.086c.107.006.213.009.319.007l.161.136c-.105,0-.212,0-.318-.007A4.622,4.622,0,0,1,546.972,442.186Z" transform="translate(-546.811 -442.05)"/></clipPath><clipPath id="i"><path class="a" d="M578.068,362.1l-.161-.136a4.882,4.882,0,0,1,2.976,1.053l.161.136A4.881,4.881,0,0,0,578.068,362.1Z" transform="translate(-577.907 -361.962)"/></clipPath><clipPath id="j"><path class="a" d="M581.161,351.509l.161.136a5.126,5.126,0,0,0-3.364-1.208l-.161-.136A5.126,5.126,0,0,1,581.161,351.509Z" transform="translate(-577.797 -350.3)"/></clipPath><clipPath id="k"><path class="a" d="M536.913,369.144l-.161-.136c-2.576-3.313-.286-7.011,2.9-7.044l.161.136C536.628,362.132,534.337,365.831,536.913,369.144Z" transform="translate(-535.64 -361.964)"/></clipPath><clipPath id="l"><path class="a" d="M525.981,373.154l-.161-.136c-1.966-1.655-2.683-4.754-.49-7.671l.161.136C523.3,368.4,524.015,371.5,525.981,373.154Z" transform="translate(-523.983 -365.347)"/></clipPath><clipPath id="m"><path class="a" d="M538.344,351.866l-.161-.136a6.173,6.173,0,0,1,3.758-1.427l.161.136A6.174,6.174,0,0,0,538.344,351.866Z" transform="translate(-538.183 -350.303)"/></clipPath><clipPath id="n"><path class="a" d="M434.358,622.366l-.161-.136c3.645-.037,6.283-4.287,3.323-8.07l.161.136C440.641,618.079,438,622.328,434.358,622.366Z" transform="translate(-434.197 -614.16)"/></clipPath><clipPath id="o"><path class="a" d="M402.416,687.846l-.161-.136a4.622,4.622,0,0,0,2.711,1.086c.107.006.213.008.318.007l.161.136q-.158,0-.319-.008A4.622,4.622,0,0,1,402.416,687.846Z" transform="translate(-402.255 -687.71)"/></clipPath><clipPath id="p"><path class="a" d="M433.507,607.754l-.161-.136a4.881,4.881,0,0,1,2.976,1.053l.161.136A4.88,4.88,0,0,0,433.507,607.754Z" transform="translate(-433.346 -607.618)"/></clipPath><clipPath id="q"><path class="a" d="M436.6,597.168l.161.136a5.125,5.125,0,0,0-3.364-1.208l-.161-.136A5.126,5.126,0,0,1,436.6,597.168Z" transform="translate(-433.238 -595.959)"/></clipPath><clipPath id="r"><path class="a" d="M392.356,614.8l-.161-.136c-2.575-3.312-.286-7.011,2.9-7.044l.161.136C392.071,607.788,389.781,611.487,392.356,614.8Z" transform="translate(-391.084 -607.62)"/></clipPath><clipPath id="s"><path class="a" d="M381.421,618.812l-.161-.136c-1.966-1.655-2.682-4.753-.49-7.67l.161.136C378.739,614.059,379.456,617.157,381.421,618.812Z" transform="translate(-379.424 -611.006)"/></clipPath><clipPath id="t"><path class="a" d="M393.784,597.525l-.161-.136a6.174,6.174,0,0,1,3.758-1.427l.161.136A6.173,6.173,0,0,0,393.784,597.525Z" transform="translate(-393.623 -595.962)"/></clipPath></defs><g transform="translate(-0.287 -0.513)"><g transform="translate(20.286 101.046)"><path class="b" d="M251.751,1048.741h3.023a9.961,9.961,0,0,1,1.368.081,2.9,2.9,0,0,1,1.1.394,3.055,3.055,0,0,1,.914.863,4.473,4.473,0,0,1,.615,1.264,5.831,5.831,0,0,1,.224,1.73,5.215,5.215,0,0,1-.92,3.181,3.684,3.684,0,0,1-3.167,1.246h-3.154Zm1.159,7.719h1.876a6.583,6.583,0,0,0,1.024-.072,2.259,2.259,0,0,0,.914-.388,2.3,2.3,0,0,0,.768-1.04,5,5,0,0,0,.3-1.912,6.141,6.141,0,0,0-.116-1.228,2.9,2.9,0,0,0-.43-1.039,2.043,2.043,0,0,0-.72-.687,2.268,2.268,0,0,0-.792-.266,8.317,8.317,0,0,0-.989-.048h-1.84Z" transform="translate(-251.751 -1048.592)"/><path class="b" d="M330.379,1075.128H329.25a2.418,2.418,0,0,1-.221-.783,3.513,3.513,0,0,1-2.336.932,2.338,2.338,0,0,1-1.583-.5,1.8,1.8,0,0,1-.021-2.626,3.531,3.531,0,0,1,1.939-.678l1-.149a5.2,5.2,0,0,0,.926-.221,5.325,5.325,0,0,0-.03-.684.982.982,0,0,0-.645-.762,2.349,2.349,0,0,0-.866-.131,2.026,2.026,0,0,0-1.1.257,1.42,1.42,0,0,0-.553.956l-1.051-.137a2.137,2.137,0,0,1,.89-1.464,3.452,3.452,0,0,1,1.971-.49,3.226,3.226,0,0,1,1.676.338,1.387,1.387,0,0,1,.657.816,5.1,5.1,0,0,1,.122,1.231v1.446q0,1.321.051,1.771A2.289,2.289,0,0,0,330.379,1075.128Zm-1.422-2.79v-.388a11.436,11.436,0,0,1-2.061.445q-1.219.164-1.219,1.03a.91.91,0,0,0,.329.72,1.4,1.4,0,0,0,.944.284,2.207,2.207,0,0,0,1.4-.475A1.935,1.935,0,0,0,328.957,1072.338Z" transform="translate(-316.208 -1066.22)"/><path class="b" d="M389.332,1057.5h-1v-.807H388.3a1.912,1.912,0,0,1-1.75.956,2.444,2.444,0,0,1-1.945-.923,3.581,3.581,0,0,1-.78-2.393,3.7,3.7,0,0,1,.735-2.425,2.393,2.393,0,0,1,1.942-.891,1.958,1.958,0,0,1,1.726.866h.024v-3.143h1.075Zm-2.664-.735a1.509,1.509,0,0,0,1.195-.58,2.671,2.671,0,0,0,.49-1.756,3.34,3.34,0,0,0-.448-1.846,1.443,1.443,0,0,0-1.284-.687,1.4,1.4,0,0,0-1.264.672,3.249,3.249,0,0,0-.427,1.765,3.439,3.439,0,0,0,.23,1.335,1.781,1.781,0,0,0,.642.822A1.539,1.539,0,0,0,386.668,1056.765Z" transform="translate(-368.727 -1048.592)"/><path class="b" d="M454.824,1057.5h-1.189l-4.576-6.877h-.024v6.877h-1.1v-8.759h1.183l4.576,6.877h.024v-6.877h1.105Z" transform="translate(-425.502 -1048.592)"/><path class="b" d="M556.871,1050.153a1.706,1.706,0,0,0-.6-1.258,2.406,2.406,0,0,0-1.523-.421,2.821,2.821,0,0,0-1.458.334,1.069,1.069,0,0,0-.562.974.935.935,0,0,0,.433.845,5.778,5.778,0,0,0,1.658.553,14.242,14.242,0,0,1,1.774.49,2.97,2.97,0,0,1,1.177.78,2,2,0,0,1,.49,1.419,2.338,2.338,0,0,1-.9,1.876,3.548,3.548,0,0,1-2.345.747,4.022,4.022,0,0,1-2.763-.825,2.912,2.912,0,0,1-.971-2.139l1.1-.1a1.874,1.874,0,0,0,.813,1.532,3.168,3.168,0,0,0,1.774.481,2.791,2.791,0,0,0,1.574-.4,1.244,1.244,0,0,0,.6-1.087,1.1,1.1,0,0,0-.627-1.045,9.1,9.1,0,0,0-2.106-.648,4.736,4.736,0,0,1-2.13-.9,1.921,1.921,0,0,1-.651-1.505,2.166,2.166,0,0,1,.825-1.739,3.4,3.4,0,0,1,2.246-.687,3.739,3.739,0,0,1,2.345.684,2.454,2.454,0,0,1,.941,1.945Z" transform="translate(-517.028 -1047.435)"/><path class="b" d="M627.764,1075.128h-1.129a2.424,2.424,0,0,1-.221-.783,3.513,3.513,0,0,1-2.336.932,2.338,2.338,0,0,1-1.583-.5,1.8,1.8,0,0,1-.021-2.626,3.532,3.532,0,0,1,1.939-.678l1-.149a5.2,5.2,0,0,0,.926-.221,5.3,5.3,0,0,0-.03-.684.982.982,0,0,0-.645-.762,2.349,2.349,0,0,0-.866-.131,2.025,2.025,0,0,0-1.1.257,1.419,1.419,0,0,0-.553.956l-1.051-.137a2.137,2.137,0,0,1,.89-1.464,3.453,3.453,0,0,1,1.972-.49,3.226,3.226,0,0,1,1.676.338,1.386,1.386,0,0,1,.657.816,5.09,5.09,0,0,1,.123,1.231v1.446q0,1.321.051,1.771A2.288,2.288,0,0,0,627.764,1075.128Zm-1.422-2.79v-.388a11.439,11.439,0,0,1-2.061.445q-1.219.164-1.219,1.03a.91.91,0,0,0,.329.72,1.4,1.4,0,0,0,.944.284,2.207,2.207,0,0,0,1.4-.475A1.934,1.934,0,0,0,626.342,1072.338Z" transform="translate(-579.586 -1066.22)"/><path class="b" d="M685.581,1057.5h-1.075v-8.759h1.075Z" transform="translate(-635.02 -1048.592)"/><path class="b" d="M711.149,1072.231H706.4a2.459,2.459,0,0,0,.6,1.607,1.777,1.777,0,0,0,1.335.556,1.631,1.631,0,0,0,1.034-.326,2.019,2.019,0,0,0,.639-.983l1.105.137a2.7,2.7,0,0,1-.986,1.524,2.926,2.926,0,0,1-1.792.532,2.877,2.877,0,0,1-2.231-.876,3.4,3.4,0,0,1-.8-2.393,3.663,3.663,0,0,1,.78-2.432,2.7,2.7,0,0,1,2.2-.932,3.081,3.081,0,0,1,1.335.3,2.6,2.6,0,0,1,1.09,1.037A4.4,4.4,0,0,1,711.149,1072.231Zm-1.105-.884a1.855,1.855,0,0,0-.6-1.4,1.833,1.833,0,0,0-1.168-.427,1.66,1.66,0,0,0-1.249.508,2.122,2.122,0,0,0-.568,1.314Z" transform="translate(-653.436 -1066.22)"/></g><g transform="translate(0.287 0.513)"><rect class="c" width="96.999" height="96.999" rx="15" transform="translate(0 0)"/><g transform="translate(21.815 16.828)"><g class="d"><g class="d" transform="translate(10.856 50.869)"><g class="e"><g class="d"><path class="f" d="M345.255,757.674l-.533-.43q.7.128,1.421.222l.533.43q-.717-.094-1.421-.222" transform="translate(-344.722 -753.161)"/><path class="g" d="M360.231,760.016l-.533-.43a32.228,32.228,0,0,0,5.217.243l.322-.012.533.43-.322.012a32.234,32.234,0,0,1-5.217-.243" transform="translate(-358.277 -755.281)"/><path class="h" d="M418.622,756.131l-.533-.43a35.233,35.233,0,0,0,5.466-.662l.533.43a35.231,35.231,0,0,1-5.466.662" transform="translate(-411.13 -751.165)"/><path class="i" d="M476.252,742.089l-.533-.43a32.249,32.249,0,0,0,4.936-1.4l.533.43a32.226,32.226,0,0,1-4.937,1.4" transform="translate(-463.293 -737.784)"/><path class="j" d="M528.294,721.553l-.533-.43a25.2,25.2,0,0,0,4.184-2.005l.533.43a25.179,25.179,0,0,1-4.184,2.005" transform="translate(-510.399 -718.651)"/><path class="k" d="M572.407,715.095l-.533-.43q.376-.228.735-.467l.533.43q-.359.239-.735.467" transform="translate(-550.328 -714.198)"/></g></g></g><g class="d" transform="translate(35.546 14.177)"><g class="l"><g class="d"><path class="k" d="M617.86,359.753l-.533-.43c-2.414-3.521-4.964-7.56-4.335-12.641a21.592,21.592,0,0,0-7.978-19.306l.533.43a21.591,21.591,0,0,1,7.978,19.306c-.629,5.08,1.921,9.119,4.335,12.641" transform="translate(-605.014 -327.376)"/></g></g></g><g class="d" transform="translate(30.287 0.718)"><g class="m"><g class="d"><path class="f" d="M550.1,185.921l-.533-.43a25.744,25.744,0,0,1,4.713,1.312l.533.43a25.752,25.752,0,0,0-4.713-1.312" transform="translate(-549.571 -185.491)"/><path class="n" d="M599.785,199.753l-.533-.43a26.93,26.93,0,0,1,7.259,4.205l.533.43a26.934,26.934,0,0,0-7.259-4.205" transform="translate(-594.539 -198.011)"/></g></g></g><g transform="translate(0.552 11.417)"><path class="o" d="M236.619,350.205l-.533-.43.292-51.491.533.43Z" transform="translate(-236.085 -298.284)"/></g><g class="d" transform="translate(7.043)"><g class="p"><g class="d" transform="translate(0 0)"><path class="g" d="M305.047,178.632l-.533-.43c2.365.015,4.749-.063,7.133-.14l.441-.014a85.763,85.763,0,0,1,13.847.309l.533.43a85.759,85.759,0,0,0-13.847-.309l-.441.014c-2.384.078-4.769.156-7.133.141" transform="translate(-304.514 -177.918)"/><path class="f" d="M530.878,182.964l-.533-.43q.916.12,1.824.28l.533.43q-.908-.162-1.824-.28" transform="translate(-508.924 -182.096)"/></g></g></g><g class="d" transform="translate(0 0.704)"><g class="q"><g class="d"><path class="k" d="M263.941,235.938l-.533-.43c-9-13.352-18.642-26.876-27.686-40.3-1.71-2.539-3.732-7.308-5.453-9.862l.533.43c1.72,2.554,3.743,7.323,5.453,9.862,9.043,13.426,18.691,26.95,27.686,40.3" transform="translate(-230.269 -185.343)"/></g></g></g><g transform="translate(0 0.284)"><path class="r" d="M230.8,181.758l-.533-.43,7.042-.421.533.43Z" transform="translate(-230.269 -180.907)"/></g><g transform="translate(0.533 0.43)"><path class="s" d="M266.179,183.174c18.405,3.281,29.027,25.8,20.031,42.13l-2.459,3.275c-2.414-3.521-4.964-7.56-4.335-12.641,1.522-12.306-8.328-24.76-23.336-24.269a28,28,0,0,0-3.972.42l25.245,35.456,3.05,4.364.109.833c-4.5,7.842-17.382,12.88-31.076,13.328a58.858,58.858,0,0,1-11.015-.66l-1.978-.047.292-51.491c3.2,5.656,9.856,15.769,9.635,23.123-.206,6.823.228,13.66.378,20.412a31.4,31.4,0,0,0,6.637.465,31.01,31.01,0,0,0,15.645-4.548c-9-13.352-18.642-26.876-27.686-40.3-1.71-2.539-3.732-7.308-5.453-9.862l7.042-.421c2.365.015,4.749-.063,7.133-.141l.441-.014C255.8,182.411,261.088,182.267,266.179,183.174Z" transform="translate(-235.892 -182.455)"/></g></g><g transform="translate(27.86 16.351)"><g class="d"><g class="d" transform="translate(5.196 1.726)"><g class="t"><g class="d"><path class="h" d="M578.918,453.7l-.161-.136.094,0,.161.136-.094,0" transform="translate(-578.757 -445.49)"/><path class="i" d="M579.912,452.915l-.161-.136a4.636,4.636,0,0,0,.739-.082l.161.136a4.658,4.658,0,0,1-.738.082" transform="translate(-579.657 -444.711)"/><path class="j" d="M587.7,450.561l-.161-.136a4.607,4.607,0,0,0,.819-.238l.161.136a4.609,4.609,0,0,1-.819.238" transform="translate(-586.704 -442.439)"/><path class="k" d="M596.332,376.384l-.161-.136c2.693-1.062,4.158-4.569,1.671-7.748l.161.136c2.486,3.179,1.022,6.686-1.671,7.748" transform="translate(-594.519 -368.5)"/></g></g></g><g class="d" transform="translate(2.165 8.703)"><g class="u"><g class="d"><path class="n" d="M546.972,442.186l-.161-.136a4.713,4.713,0,0,0,.718.5l.161.136a4.7,4.7,0,0,1-.717-.5" transform="translate(-546.811 -442.05)"/><path class="f" d="M554.536,447.439l-.161-.136a4.638,4.638,0,0,0,.937.4l.161.136a4.628,4.628,0,0,1-.937-.4" transform="translate(-553.658 -446.805)"/><path class="g" d="M564.419,451.664l-.161-.136a4.567,4.567,0,0,0,.749.159l.161.136a4.548,4.548,0,0,1-.749-.159" transform="translate(-562.603 -450.629)"/><path class="h" d="M572.319,453.341l-.161-.136q.152.019.307.028c.107.006.213.009.319.007l.161.136c-.105,0-.212,0-.319-.007s-.206-.015-.308-.028" transform="translate(-569.754 -452.147)"/></g></g></g><g class="d" transform="translate(5.115 1.106)"><g class="v"><g class="d" transform="translate(0 0)"><path class="h" d="M578.068,362.1l-.161-.136a4.232,4.232,0,0,1,.568.033l.161.136a4.21,4.21,0,0,0-.568-.033" transform="translate(-577.907 -361.962)"/><path class="g" d="M584.056,362.446l-.161-.136a4.484,4.484,0,0,1,.734.156l.161.136a4.48,4.48,0,0,0-.734-.156" transform="translate(-583.327 -362.277)"/><path class="f" d="M591.8,364.095l-.161-.136a5.092,5.092,0,0,1,1.026.441l.161.136a5.084,5.084,0,0,0-1.027-.441" transform="translate(-590.334 -363.77)"/><path class="n" d="M602.619,368.744l-.161-.136a6.015,6.015,0,0,1,.647.423l.161.136a5.989,5.989,0,0,0-.647-.422" transform="translate(-600.129 -367.978)"/></g></g></g><g class="d" transform="translate(5.105)"><g class="w"><g class="d" transform="translate(0 0)"><path class="h" d="M577.958,350.436l-.161-.136a5.157,5.157,0,0,1,.7.04l.161.136a5.178,5.178,0,0,0-.7-.04" transform="translate(-577.797 -350.3)"/><path class="g" d="M585.342,350.862l-.161-.136a5.1,5.1,0,0,1,.841.179l.161.136a5.1,5.1,0,0,0-.841-.179" transform="translate(-584.481 -350.686)"/><path class="f" d="M594.21,352.747l-.161-.136a5.121,5.121,0,0,1,1.031.44l.161.136a5.122,5.122,0,0,0-1.031-.44" transform="translate(-592.507 -352.392)"/><path class="n" d="M605.077,357.388l-.161-.136a5.172,5.172,0,0,1,.792.549l.161.136a5.176,5.176,0,0,0-.792-.549" transform="translate(-602.344 -356.593)"/></g></g></g><g class="d" transform="translate(1.106 1.106)"><g class="x"><g class="d" transform="translate(0)"><path class="k" d="M536.913,371.825l-.161-.136c-2.164-2.782-.894-5.837,1.454-6.763l.161.136c-2.348.926-3.617,3.981-1.454,6.763" transform="translate(-535.64 -364.645)"/><path class="j" d="M562.847,363.078l-.161-.136a4.025,4.025,0,0,1,.715-.208l.161.136a4.022,4.022,0,0,0-.715.208" transform="translate(-560.121 -362.661)"/><path class="i" d="M570.386,362.189l-.161-.136a4.063,4.063,0,0,1,.646-.071l.161.136a4.068,4.068,0,0,0-.646.071" transform="translate(-566.944 -361.98)"/><path class="h" d="M577.2,362.1l-.161-.136.083,0,.161.136-.083,0" transform="translate(-573.11 -361.964)"/></g></g></g><g transform="translate(1.267 1.242)"><path class="y" d="M541.348,363.392a4.881,4.881,0,0,1,2.976,1.053c2.57,3.313.281,7.009-2.9,7.042a4.879,4.879,0,0,1-2.973-1.05C535.875,367.123,538.165,363.425,541.348,363.392Z" transform="translate(-537.339 -363.392)"/></g><g class="d" transform="translate(0 1.427)"><g class="z"><g class="d"><path class="k" d="M525.981,373.154l-.161-.136c-1.966-1.655-2.683-4.754-.49-7.671l.161.136c-2.193,2.917-1.476,6.016.49,7.671" transform="translate(-523.983 -365.347)"/></g></g></g><g transform="translate(0.161 0.136)"><path class="y" d="M530.786,351.729a5.154,5.154,0,0,1,.767,10.257,5.326,5.326,0,0,1-.672.05c-4.045.042-7.06-4.613-3.854-8.879A6.175,6.175,0,0,1,530.786,351.729Zm.091,9.8c3.645-.037,6.282-4.286,3.323-8.07a5.554,5.554,0,0,0-3.409-1.216,4.643,4.643,0,0,0-.232,9.278c.107.006.213.008.319.007" transform="translate(-525.682 -351.729)"/></g><g class="d" transform="translate(1.347 0)"><g class="aa"><g class="d"><path class="k" d="M538.344,355.648l-.161-.136a7.024,7.024,0,0,1,1.771-1.031l.161.136a7.029,7.029,0,0,0-1.771,1.031" transform="translate(-538.183 -354.086)"/><path class="j" d="M557.019,351.752l-.161-.136a5.809,5.809,0,0,1,1.033-.3l.161.136a5.819,5.819,0,0,0-1.033.3" transform="translate(-555.087 -351.22)"/><path class="i" d="M567.908,350.555l-.161-.136a5.379,5.379,0,0,1,.85-.094l.161.136a5.391,5.391,0,0,0-.85.094" transform="translate(-564.943 -350.323)"/><path class="h" d="M576.866,350.441l-.161-.136.1,0,.161.136-.1,0" transform="translate(-573.051 -350.303)"/></g></g></g></g></g><g transform="translate(14.148 39.653)"><g class="d"><g class="d" transform="translate(5.196 1.726)"><g class="ab"><g class="d"><path class="h" d="M434.358,699.356l-.161-.136.094,0,.161.135-.094,0" transform="translate(-434.197 -691.15)"/><path class="i" d="M435.352,698.575l-.161-.136a4.665,4.665,0,0,0,.738-.082l.161.136a4.636,4.636,0,0,1-.738.082" transform="translate(-435.097 -690.371)"/><path class="j" d="M443.136,696.221l-.161-.136a4.613,4.613,0,0,0,.819-.238l.161.136a4.6,4.6,0,0,1-.819.238" transform="translate(-442.142 -688.099)"/><path class="k" d="M451.77,622.044l-.161-.136c2.693-1.062,4.158-4.57,1.672-7.748l.161.136c2.486,3.179,1.022,6.686-1.672,7.749" transform="translate(-449.957 -614.16)"/></g></g></g><g class="d" transform="translate(2.166 8.703)"><g class="ac"><g class="d"><path class="n" d="M402.416,687.846l-.161-.136a4.711,4.711,0,0,0,.718.5l.161.136a4.721,4.721,0,0,1-.718-.5" transform="translate(-402.255 -687.71)"/><path class="f" d="M409.982,693.1l-.161-.136a4.633,4.633,0,0,0,.937.4l.161.135a4.629,4.629,0,0,1-.937-.4" transform="translate(-409.103 -692.465)"/><path class="g" d="M419.864,697.324l-.161-.136a4.555,4.555,0,0,0,.749.159l.161.136a4.551,4.551,0,0,1-.749-.159" transform="translate(-418.048 -696.289)"/><path class="h" d="M427.761,699l-.161-.135q.152.019.307.028c.107.006.213.008.318.007l.161.136q-.158,0-.319-.008t-.307-.028" transform="translate(-425.196 -697.807)"/></g></g></g><g class="d" transform="translate(5.115 1.106)"><g class="ad"><g class="d" transform="translate(0 0)"><path class="h" d="M433.507,607.754l-.161-.136a4.217,4.217,0,0,1,.568.033l.161.136a4.188,4.188,0,0,0-.568-.033" transform="translate(-433.346 -607.618)"/><path class="g" d="M439.492,608.1l-.161-.136a4.478,4.478,0,0,1,.734.156l.161.136a4.468,4.468,0,0,0-.734-.156" transform="translate(-438.763 -607.933)"/><path class="f" d="M447.232,609.75l-.161-.135a5.086,5.086,0,0,1,1.027.441l.161.136a5.092,5.092,0,0,0-1.026-.441" transform="translate(-445.769 -609.426)"/><path class="n" d="M458.054,614.4l-.161-.135a6,6,0,0,1,.648.423l.161.136a6.017,6.017,0,0,0-.648-.423" transform="translate(-455.565 -613.634)"/></g></g></g><g class="d" transform="translate(5.105)"><g class="ae"><g class="d" transform="translate(0 0)"><path class="h" d="M433.4,596.095l-.161-.136a5.187,5.187,0,0,1,.7.04l.161.136a5.166,5.166,0,0,0-.7-.04" transform="translate(-433.238 -595.959)"/><path class="g" d="M440.783,596.521l-.161-.136a5.114,5.114,0,0,1,.841.179l.161.136a5.119,5.119,0,0,0-.841-.179" transform="translate(-439.922 -596.345)"/><path class="f" d="M449.651,598.407l-.161-.136a5.125,5.125,0,0,1,1.031.44l.161.136a5.115,5.115,0,0,0-1.031-.44" transform="translate(-447.948 -598.052)"/><path class="n" d="M460.517,603.047l-.161-.136a5.178,5.178,0,0,1,.792.549l.161.136a5.165,5.165,0,0,0-.792-.549" transform="translate(-457.784 -602.252)"/></g></g></g><g class="d" transform="translate(1.106 1.106)"><g class="af"><g class="d" transform="translate(0)"><path class="k" d="M392.356,617.48l-.161-.136c-2.163-2.782-.894-5.837,1.454-6.763l.161.136c-2.348.926-3.617,3.981-1.454,6.763" transform="translate(-391.084 -610.301)"/><path class="j" d="M418.289,608.734l-.161-.136a4.017,4.017,0,0,1,.715-.208l.161.135a4.03,4.03,0,0,0-.715.208" transform="translate(-415.563 -608.317)"/><path class="i" d="M425.827,607.845l-.161-.135a4.059,4.059,0,0,1,.646-.071l.161.135a4.073,4.073,0,0,0-.646.071" transform="translate(-422.386 -607.636)"/><path class="h" d="M432.637,607.757l-.161-.136.083,0,.161.136-.083,0" transform="translate(-428.55 -607.62)"/></g></g></g><g transform="translate(1.267 1.242)"><path class="y" d="M396.791,609.048a4.881,4.881,0,0,1,2.976,1.053c2.57,3.313.281,7.009-2.9,7.041a4.88,4.88,0,0,1-2.973-1.051C391.319,612.779,393.608,609.081,396.791,609.048Z" transform="translate(-392.783 -609.048)"/></g><g class="d" transform="translate(0 1.427)"><g class="ag"><g class="d"><path class="k" d="M381.421,618.812l-.161-.136c-1.966-1.655-2.682-4.753-.49-7.67l.161.136c-2.193,2.917-1.476,6.016.49,7.67" transform="translate(-379.424 -611.006)"/></g></g></g><g transform="translate(0.161 0.136)"><path class="y" d="M386.227,597.389a5.153,5.153,0,0,1,.767,10.256,5.34,5.34,0,0,1-.672.05c-4.045.042-7.06-4.613-3.853-8.878A6.173,6.173,0,0,1,386.227,597.389Zm.091,9.8c3.645-.038,6.282-4.287,3.323-8.07a5.554,5.554,0,0,0-3.409-1.216,4.643,4.643,0,0,0-.232,9.278q.16.009.319.008" transform="translate(-381.122 -597.389)"/></g><g class="d" transform="translate(1.347 0)"><g class="ah"><g class="d"><path class="k" d="M393.784,601.307l-.161-.136a7.029,7.029,0,0,1,1.771-1.031l.161.136a7.026,7.026,0,0,0-1.771,1.031" transform="translate(-393.623 -599.745)"/><path class="j" d="M412.46,597.411l-.161-.136a5.813,5.813,0,0,1,1.033-.3l.161.136a5.816,5.816,0,0,0-1.033.3" transform="translate(-410.527 -596.879)"/><path class="i" d="M423.348,596.214l-.161-.136a5.392,5.392,0,0,1,.85-.094l.161.136a5.375,5.375,0,0,0-.85.094" transform="translate(-420.383 -595.982)"/><path class="h" d="M432.307,596.1l-.161-.136.1,0,.161.136-.1,0" transform="translate(-428.492 -595.962)"/></g></g></g></g></g></g></g></g></svg>