<svg xmlns="http://www.w3.org/2000/svg" width="18" height="18" viewBox="0 0 18 18">
  <g id="home" transform="translate(-1553 -296)">
    <rect id="Rectangle_10071" data-name="Rectangle 10071" width="18" height="18" transform="translate(1553 296)" fill="#6b6b6b" opacity="0"/>
    <path id="_10886806321581426690" data-name="10886806321581426690" d="M15.352,4.987l-5.6-3.65a2.139,2.139,0,0,0-2.318,0l-5.6,3.65A1.7,1.7,0,0,0,1,6.408v9.77H7.21V12.335H9.97v3.843h6.21V6.408A1.7,1.7,0,0,0,15.352,4.987ZM14.8,14.8H11.35V10.955H5.83V14.8H2.38V6.408a.338.338,0,0,1,.179-.269l5.6-3.65a.787.787,0,0,1,.814,0l5.6,3.65a.338.338,0,0,1,.179.269Z" transform="translate(1553 296.004)" fill="#6b6b6b"/>
  </g>
</svg>
