<svg xmlns="http://www.w3.org/2000/svg" width="18" height="18" viewBox="0 0 18 18">
  <g id="logout" transform="translate(-1555 -295)">
    <rect id="Rectangle_10071" data-name="Rectangle 10071" width="18" height="18" transform="translate(1555 295)" fill="#6b6b6b" opacity="0"/>
    <g id="noun_logout_3324724" transform="translate(1545.93 285.845)">
      <g id="Group_14104" data-name="Group 14104" transform="translate(10.578 10.279)">
        <path id="Path_16766" data-name="Path 16766" d="M25.562,17.98a7.491,7.491,0,1,1-12.674-5.41.7.7,0,0,1,.969,1.01,6.093,6.093,0,1,0,8.429,0,.7.7,0,0,1,.969-1.01A7.433,7.433,0,0,1,25.562,17.98Zm-7.491.96a.7.7,0,0,0,.7-.7V10.979a.7.7,0,0,0-1.4,0v7.262A.7.7,0,0,0,18.07,18.94Z" transform="translate(-10.578 -10.279)" fill="#6b6b6b"/>
      </g>
    </g>
  </g>
</svg>
