<svg xmlns="http://www.w3.org/2000/svg" width="48" height="48" viewBox="0 0 48 48"><defs><style>.a{fill:#efefef;}.b{fill:#1c1c1c;}</style></defs><g transform="translate(8 8)"><circle class="a" cx="24" cy="24" r="24" transform="translate(-8 -8)"/><g transform="translate(-6.905 -5.185)"><path class="b" d="M27.814,15.289H14.594A1.094,1.094,0,0,1,13.5,14.194h0A1.094,1.094,0,0,1,14.594,13.1H27.814a1.094,1.094,0,0,1,1.094,1.094h0A1.094,1.094,0,0,1,27.814,15.289Z" transform="translate(0 0)"/><path class="b" d="M31.946,48.289H14.509A1.054,1.054,0,0,1,13.5,47.194h0A1.054,1.054,0,0,1,14.509,46.1H31.946a1.054,1.054,0,0,1,1.009,1.094h0A1.054,1.054,0,0,1,31.946,48.289Z" transform="translate(0 -26.209)"/><path class="b" d="M27.814,81.289H14.594A1.094,1.094,0,0,1,13.5,80.194h0A1.094,1.094,0,0,1,14.594,79.1H27.814a1.094,1.094,0,0,1,1.094,1.094h0A1.094,1.094,0,0,1,27.814,81.289Z" transform="translate(0 -52.419)"/></g></g></svg>