<svg xmlns="http://www.w3.org/2000/svg" width="71" height="71" viewBox="0 0 71 71"><defs><style>.a,.b{fill:#fff;}.a{opacity:0.1;}</style></defs><g transform="translate(-0.432)"><rect class="a" width="71" height="71" rx="35.5" transform="translate(0.432)"/><g transform="translate(19.786 20.822)"><g transform="translate(0 6.611)"><g transform="translate(0 0)"><path class="b" d="M46.807,258.549V275.79c0,.793-.01,1.589,0,2.382v.032l1.592-1.592H21.309c-.366,0-.732,0-1.1,0h-.048l1.592,1.592V260.962c0-.793.01-1.589,0-2.382v-.032l-1.592,1.592h27.09c.366,0,.732,0,1.1,0H48.4a1.657,1.657,0,0,0,1.127-.465,1.6,1.6,0,0,0,0-2.254,1.651,1.651,0,0,0-1.127-.465H21.309c-.366,0-.732,0-1.1,0h-.048a1.616,1.616,0,0,0-1.592,1.592V275.79c0,.793-.01,1.589,0,2.382v.032a1.616,1.616,0,0,0,1.592,1.592h27.09c.366,0,.732,0,1.1,0H48.4a1.616,1.616,0,0,0,1.592-1.592V260.962c0-.793.01-1.589,0-2.382v-.032a1.657,1.657,0,0,0-.465-1.127,1.6,1.6,0,0,0-2.254,0A1.678,1.678,0,0,0,46.807,258.549Z" transform="translate(-18.567 -256.956)"/></g></g><g transform="translate(0.011)"><path class="b" d="M48.747,55.942H21.657c-.366,0-.732,0-1.1,0h-.048q.564,1.361,1.127,2.719l2.1-2.235q1.676-1.781,3.35-3.56l.767-.815c-.376.156-.751.312-1.127.465H40.592c.637,0,1.274.01,1.91,0h.029c-.376-.156-.751-.312-1.127-.465l2.1,2.235q1.676,1.781,3.35,3.56l.767.815a1.592,1.592,0,0,0,2.719-1.127,1.716,1.716,0,0,0-.465-1.127q-.95-1.008-1.9-2.015-1.619-1.719-3.235-3.436c-.322-.344-.646-.685-.968-1.028a1.72,1.72,0,0,0-1.248-.6H27.213a3.086,3.086,0,0,0-.907.057,2.949,2.949,0,0,0-1.223.962q-1.5,1.6-3.006,3.194-1.28,1.361-2.56,2.719l-.137.146a1.6,1.6,0,0,0,1.127,2.716H47.6c.366,0,.732,0,1.1,0h.048a1.657,1.657,0,0,0,1.127-.465,1.6,1.6,0,0,0,0-2.254A1.652,1.652,0,0,0,48.747,55.942Z" transform="translate(-18.926 -49.326)"/></g></g><g transform="translate(22.05 22.259)"><circle class="b" cx="0.79" cy="0.79" r="0.79" transform="translate(13.986 16.903)"/><circle class="b" cx="0.79" cy="0.79" r="0.79" transform="translate(11.346 14.25)"/><path class="b" d="M8.439,17.806a.6.6,0,0,1,.141.452l-.127.875a1.089,1.089,0,0,0,.9,1.228l.847.155a.64.64,0,0,1,.381.282l.409.776a1.079,1.079,0,0,0,1.44.466l.776-.381a.539.539,0,0,1,.466,0l.776.381a1.1,1.1,0,0,0,1.44-.466L16.3,20.8a.64.64,0,0,1,.381-.282l.847-.155a1.111,1.111,0,0,0,.9-1.228l-.113-.875a.583.583,0,0,1,.141-.452l.607-.635a1.1,1.1,0,0,0,0-1.524l-.607-.621a.642.642,0,0,1-.141-.452l.127-.875a1.089,1.089,0,0,0-.9-1.228l-.847-.155a.64.64,0,0,1-.381-.282l-.409-.776a1.079,1.079,0,0,0-1.44-.466l-.776.381a.539.539,0,0,1-.466,0l-.776-.381a1.1,1.1,0,0,0-1.44.466l-.409.776a.64.64,0,0,1-.381.282l-.847.155a1.111,1.111,0,0,0-.9,1.228l.113.875a.642.642,0,0,1-.141.452l-.607.635a1.1,1.1,0,0,0,0,1.524ZM9.2,15.76a1.6,1.6,0,0,0,.423-1.341s-.1-.9-.085-.917l.847-.155a1.659,1.659,0,0,0,1.129-.833l.409-.776c0-.014.819.367.819.367a1.648,1.648,0,0,0,1.411,0l.776-.381c.014,0,.452.79.452.79a1.7,1.7,0,0,0,1.129.833l.847.155c.014,0-.085.917-.085.917a1.691,1.691,0,0,0,.438,1.341l.607.635c.014.014-.593.692-.593.692a1.645,1.645,0,0,0-.438,1.327l.127.875c0,.014-.875.2-.875.2a1.659,1.659,0,0,0-1.129.833L15,21.095c0,.014-.819-.367-.819-.367a1.648,1.648,0,0,0-1.411,0l-.8.353c-.014,0-.452-.79-.452-.79a1.7,1.7,0,0,0-1.129-.833s-.875-.183-.875-.2l.127-.875A1.645,1.645,0,0,0,9.2,17.058s-.621-.677-.607-.692Z"/><path class="b" d="M35.5,40l3.176-3.176a.529.529,0,1,0-.72-.776l-.028.028-3.176,3.176a.533.533,0,0,0,.028.748.539.539,0,0,0,.72,0Z" transform="translate(-23.262 -21.673)"/></g></g></svg>