<svg xmlns="http://www.w3.org/2000/svg" width="71" height="71" viewBox="0 0 71 71"><defs><style>.a,.b{fill:#fff;}.a{opacity:0.1;}</style></defs><g transform="translate(-0.432)"><rect class="a" width="71" height="71" rx="35.5" transform="translate(0.432)"/><g transform="translate(19.786 20.822)"><g transform="translate(0 6.611)"><g transform="translate(0 0)"><path class="b" d="M46.807,258.549V275.79c0,.793-.01,1.589,0,2.382v.032l1.592-1.592H21.309c-.366,0-.732,0-1.1,0h-.048l1.592,1.592V260.962c0-.793.01-1.589,0-2.382v-.032l-1.592,1.592h27.09c.366,0,.732,0,1.1,0H48.4a1.657,1.657,0,0,0,1.127-.465,1.6,1.6,0,0,0,0-2.254,1.651,1.651,0,0,0-1.127-.465H21.309c-.366,0-.732,0-1.1,0h-.048a1.616,1.616,0,0,0-1.592,1.592V275.79c0,.793-.01,1.589,0,2.382v.032a1.616,1.616,0,0,0,1.592,1.592h27.09c.366,0,.732,0,1.1,0H48.4a1.616,1.616,0,0,0,1.592-1.592V260.962c0-.793.01-1.589,0-2.382v-.032a1.657,1.657,0,0,0-.465-1.127,1.6,1.6,0,0,0-2.254,0A1.678,1.678,0,0,0,46.807,258.549Z" transform="translate(-18.567 -256.956)"/></g></g><g transform="translate(0.011)"><path class="b" d="M48.747,55.942H21.657c-.366,0-.732,0-1.1,0h-.048q.564,1.361,1.127,2.719l2.1-2.235q1.676-1.781,3.35-3.56l.767-.815c-.376.156-.751.312-1.127.465H40.592c.637,0,1.274.01,1.91,0h.029c-.376-.156-.751-.312-1.127-.465l2.1,2.235q1.676,1.781,3.35,3.56l.767.815a1.592,1.592,0,0,0,2.719-1.127,1.716,1.716,0,0,0-.465-1.127q-.95-1.008-1.9-2.015-1.619-1.719-3.235-3.436c-.322-.344-.646-.685-.968-1.028a1.72,1.72,0,0,0-1.248-.6H27.213a3.086,3.086,0,0,0-.907.057,2.949,2.949,0,0,0-1.223.962q-1.5,1.6-3.006,3.194-1.28,1.361-2.56,2.719l-.137.146a1.6,1.6,0,0,0,1.127,2.716H47.6c.366,0,.732,0,1.1,0h.048a1.657,1.657,0,0,0,1.127-.465,1.6,1.6,0,0,0,0-2.254A1.652,1.652,0,0,0,48.747,55.942Z" transform="translate(-18.926 -49.326)"/></g><g transform="translate(10.508 6.608)"><g transform="translate(0 0)"><path class="b" d="M355.726,258.458v8.731q1.2-.688,2.394-1.375-1.576-.826-3.155-1.652c-.134-.07-.267-.143-.4-.213a1.662,1.662,0,0,0-.806-.22,1.888,1.888,0,0,0-.806.216.24.24,0,0,0-.038.022c-.07.038-.143.073-.213.111-.611.322-1.223.64-1.834.962q-.735.387-1.474.771,1.2.688,2.394,1.375v-8.731l-1.592,1.592h7.123a1.657,1.657,0,0,0,1.127-.465,1.6,1.6,0,0,0,0-2.254,1.651,1.651,0,0,0-1.127-.465h-7.123a1.616,1.616,0,0,0-1.592,1.592v8.731a1.608,1.608,0,0,0,.79,1.375,1.627,1.627,0,0,0,1.608,0l3.117-1.633c.15-.076.3-.156.446-.232h-1.608l3.117,1.633c.15.076.3.156.446.232a1.627,1.627,0,0,0,1.608,0,1.6,1.6,0,0,0,.79-1.375v-8.731a1.657,1.657,0,0,0-.465-1.127,1.6,1.6,0,0,0-2.254,0A1.68,1.68,0,0,0,355.726,258.458Z" transform="translate(-348.6 -256.862)"/></g></g></g></g></svg>