<svg xmlns="http://www.w3.org/2000/svg" width="15.429" height="15.427" viewBox="0 0 15.429 15.427"><defs><style>.a{fill:#1aa504;}</style></defs><g transform="translate(-1.563 -1.58)"><path class="a" d="M30.222,18.19H28.948v3.816H26.5v1.274h3.722Z" transform="translate(-20.965 -13.964)"/><path class="a" d="M15.433,9.732a6.985,6.985,0,1,0-5.717,5.715,4.071,4.071,0,1,0,5.717-5.715ZM8.548,14.271a5.709,5.709,0,1,1,5.709-5.709c0,.172-.01.344-.025.514a4.071,4.071,0,0,0-5.169,5.169C8.892,14.262,8.72,14.271,8.548,14.271Zm4.367,1.459a2.8,2.8,0,1,1,2.8-2.8,2.8,2.8,0,0,1-2.8,2.8Z"/><rect class="a" width="1.274" height="2.987" transform="translate(12.28 10.88)"/><rect class="a" width="1.274" height="0.916" transform="translate(12.28 14.225)"/></g></svg>