<svg xmlns="http://www.w3.org/2000/svg" width="96.318" height="90.317" viewBox="0 0 96.318 90.317">
  <g id="noun_mobile_app" data-name="noun_mobile app" transform="translate(-1159 -1050)">
    <rect id="Rectangle_1906" data-name="Rectangle 1906" width="82.317" height="82.317" rx="41" transform="translate(1159 1058)" fill="#df2b5c"/>
    <rect id="Rectangle_4084" data-name="Rectangle 4084" width="82.317" height="82.317" rx="41" transform="translate(1173 1050)" fill="#df2b5c" opacity="0.16"/>
    <g id="noun_mobile_app-2" data-name="noun_mobile app" transform="translate(1168.992 1067.551)">
      <path id="Path_5331" data-name="Path 5331" d="M17.408,12.879V50.337a2.55,2.55,0,0,0,2.554,2.554H42.1a2.556,2.556,0,0,0,2.554-2.554V12.879A2.561,2.561,0,0,0,42.1,10.325H19.962A2.556,2.556,0,0,0,17.408,12.879Zm1.7,4.112H42.948V46.225H19.111Z" fill="#fff"/>
      <path id="Path_5332" data-name="Path 5332" d="M36.4,23.24H31.638a.843.843,0,0,0-.851.851V28.85a.848.848,0,0,0,.851.851H36.4a.854.854,0,0,0,.851-.851V24.091A.848.848,0,0,0,36.4,23.24Z" transform="translate(1.094 1.056)" fill="#fff"/>
      <path id="Path_5333" data-name="Path 5333" d="M28.851,30.787H24.083a.854.854,0,0,0-.851.851V36.4a.848.848,0,0,0,.851.851h4.767A.848.848,0,0,0,29.7,36.4V31.638A.854.854,0,0,0,28.851,30.787Z" transform="translate(0.476 1.673)" fill="#fff"/>
      <path id="Path_5334" data-name="Path 5334" d="M36.4,30.787H31.638a.848.848,0,0,0-.851.851V36.4a.843.843,0,0,0,.851.851H36.4a.848.848,0,0,0,.851-.851V31.638A.854.854,0,0,0,36.4,30.787Z" transform="translate(1.094 1.673)" fill="#fff"/>
      <path id="Path_5335" data-name="Path 5335" d="M28.851,23.24H24.083a.848.848,0,0,0-.851.851V28.85a.854.854,0,0,0,.851.851h4.767a.854.854,0,0,0,.851-.851V24.091A.848.848,0,0,0,28.851,23.24Z" transform="translate(0.476 1.056)" fill="#fff"/>
    </g>
  </g>
</svg>
