<svg xmlns="http://www.w3.org/2000/svg" width="18" height="18" viewBox="0 0 18 18">
  <g id="productw" transform="translate(-1555 -295)">
    <rect id="Rectangle_10071" data-name="Rectangle 10071" width="18" height="18" transform="translate(1555 295)" fill="#fff" opacity="0"/>
    <g id="Group_12963" data-name="Group 12963" transform="translate(1517.19 271.596)">
      <path id="Path_16167" data-name="Path 16167" d="M39.662,27.6a.614.614,0,0,0-.413-.57l-6.661-2.15a.551.551,0,0,0-.34,0l-6.661,2.15a.573.573,0,0,0-.229.15.649.649,0,0,0-.057.058c-.006.007-.01.015-.015.023a.637.637,0,0,0-.124.376v9.471a.619.619,0,0,0,.376.578l6.655,2.682c.012,0,.025.007.038.011l.008,0a.558.558,0,0,0,.161.027h.006a.558.558,0,0,0,.161-.027l.008,0c.013,0,.025-.006.038-.011l6.655-2.682a.619.619,0,0,0,.376-.578V27.751A.655.655,0,0,0,39.662,27.6Zm-7.244-1.482,4.865,1.57-1.1.449L32.4,29.659l-4.851-1.97Zm-.6,12.775-5.487-2.211V28.535l5.487,2.211Zm6.661-2.212L32.99,38.894V30.758l3.651-1.483,1.836-.74Z" transform="translate(14 0)" fill="#fff"/>
      <path id="Path_16168" data-name="Path 16168" d="M33.227,43.108l1.7.657a.584.584,0,0,0,.42-1.09l-1.7-.657a.584.584,0,0,0-.42,1.09Z" transform="translate(8.553 -11.786)" fill="#fff"/>
    </g>
  </g>
</svg>
