<svg xmlns="http://www.w3.org/2000/svg" width="14.936" height="14.936" viewBox="0 0 14.936 14.936"><defs><style>.a{fill:#df2b5c;}</style></defs><path class="a" d="M371.734,4.2a.467.467,0,0,1-.467-.467V1.342a.409.409,0,0,0-.408-.408h-2.392a.467.467,0,0,1,0-.933h2.392A1.343,1.343,0,0,1,372.2,1.342V3.734A.467.467,0,0,1,371.734,4.2Z" transform="translate(-357.265)"/><path class="a" d="M.467,4.2A.467.467,0,0,1,0,3.734V1.342A1.343,1.343,0,0,1,1.342,0H3.734a.467.467,0,1,1,0,.933H1.342a.409.409,0,0,0-.408.408V3.734A.467.467,0,0,1,.467,4.2Z"/><path class="a" d="M3.734,372.2H1.342A1.343,1.343,0,0,1,0,370.859v-2.392a.467.467,0,0,1,.933,0v2.392a.409.409,0,0,0,.408.408H3.734a.467.467,0,1,1,0,.933Z" transform="translate(0 -357.265)"/><path class="a" d="M370.859,372.2h-2.392a.467.467,0,0,1,0-.933h2.392a.409.409,0,0,0,.408-.408v-2.392a.467.467,0,1,1,.933,0v2.392A1.343,1.343,0,0,1,370.859,372.2Z" transform="translate(-357.265 -357.265)"/><path class="a" d="M67.792,69.134h-2.45A1.343,1.343,0,0,1,64,67.792v-2.45A1.343,1.343,0,0,1,65.342,64h2.45a1.343,1.343,0,0,1,1.342,1.342v2.45A1.343,1.343,0,0,1,67.792,69.134Zm-2.45-4.2a.409.409,0,0,0-.408.408v2.45a.409.409,0,0,0,.408.408h2.45a.409.409,0,0,0,.408-.408v-2.45a.409.409,0,0,0-.408-.408Z" transform="translate(-62.133 -62.133)"/><path class="a" d="M67.792,277.134h-2.45A1.343,1.343,0,0,1,64,275.792v-2.45A1.343,1.343,0,0,1,65.342,272h2.45a1.343,1.343,0,0,1,1.342,1.342v2.45A1.343,1.343,0,0,1,67.792,277.134Zm-2.45-4.2a.409.409,0,0,0-.408.408v2.45a.409.409,0,0,0,.408.408h2.45a.409.409,0,0,0,.408-.408v-2.45a.409.409,0,0,0-.408-.408Z" transform="translate(-62.133 -264.065)"/><path class="a" d="M275.792,69.134h-2.45A1.343,1.343,0,0,1,272,67.792v-2.45A1.343,1.343,0,0,1,273.342,64h2.45a1.343,1.343,0,0,1,1.342,1.342v2.45A1.343,1.343,0,0,1,275.792,69.134Zm-2.45-4.2a.409.409,0,0,0-.408.408v2.45a.409.409,0,0,0,.408.408h2.45a.409.409,0,0,0,.408-.408v-2.45a.409.409,0,0,0-.408-.408Z" transform="translate(-264.065 -62.133)"/><path class="a" d="M276.376,274.334h-1.109v-1.575a.759.759,0,0,0-.758-.758h-1.75a.759.759,0,0,0-.758.758v1.75a.759.759,0,0,0,.758.758h1.575v1.109a.759.759,0,0,0,.758.758h1.284a.759.759,0,0,0,.758-.758v-1.284A.759.759,0,0,0,276.376,274.334Zm-3.442-1.4h1.4v1.4h-1.4ZM276.2,276.2h-.933v-.933h.933Z" transform="translate(-264.065 -264.065)"/><path class="a" d="M128.933,129.4h-.467a.467.467,0,0,1-.467-.467v-.467a.467.467,0,0,1,.467-.467h.467a.467.467,0,0,1,.467.467v.467A.467.467,0,0,1,128.933,129.4Z" transform="translate(-124.266 -124.266)"/><path class="a" d="M336.933,129.4h-.467a.467.467,0,0,1-.467-.467v-.467a.467.467,0,0,1,.467-.467h.467a.467.467,0,0,1,.467.467v.467A.467.467,0,0,1,336.933,129.4Z" transform="translate(-326.198 -124.266)"/><path class="a" d="M128.933,337.4h-.467a.467.467,0,0,1-.467-.467v-.467a.467.467,0,0,1,.467-.467h.467a.467.467,0,0,1,.467.467v.467A.467.467,0,0,1,128.933,337.4Z" transform="translate(-124.266 -326.198)"/></svg>