<svg xmlns="http://www.w3.org/2000/svg" width="33.495" height="21.945" viewBox="0 0 33.495 21.945"><defs><style>.a{fill:#73af00;}.b{fill:#f5f5f5;}</style></defs><g transform="translate(0 -88.276)"><path class="a" d="M30.987,110.221H2.509A2.508,2.508,0,0,1,0,107.712V90.785a2.509,2.509,0,0,1,2.509-2.509H30.987A2.509,2.509,0,0,1,33.5,90.785v16.928A2.508,2.508,0,0,1,30.987,110.221Z" transform="translate(0 0)"/><g transform="translate(6.622 92.896)"><path class="b" d="M102.443,168.438c.057.365.277.479.469.464a.471.471,0,0,0,.424-.443v-1.252a.114.114,0,0,1,.228,0v1.257a.455.455,0,0,0,.624.423l.114-.045c.01,1.051-.053,1.975-.055,1.992a.228.228,0,0,0,.211.243h.016a.228.228,0,0,0,.227-.211c.005-.074.075-1.086.054-2.206l.069-.027a.228.228,0,0,1,.186.008.65.65,0,0,0,.751-.122l.041-.041a.68.68,0,0,0,.165-.7l-.194-.582a.228.228,0,0,0,.169-.421l-.455-.228a.228.228,0,0,0-.318.276l.366,1.1a.227.227,0,0,1-.055.233l-.041.041a.2.2,0,0,1-.225.036.681.681,0,0,0-.473-.047,7.852,7.852,0,0,0-.278-1.961.228.228,0,0,0-.432.144,7.825,7.825,0,0,1,.261,1.987l-.273.109v-1.257a.569.569,0,1,0-1.138,0v1.1l-.232-1.147a.228.228,0,1,0-.446.09Z" transform="translate(-102.135 -165.6)"/><path class="b" d="M109.388,163.277a.228.228,0,0,0,.228-.228v-.228a.228.228,0,1,0-.455,0v.228A.228.228,0,0,0,109.388,163.277Z" transform="translate(-108.641 -162.352)"/><path class="b" d="M144.185,163.049h.228a.228.228,0,1,0,0-.455h-.228a.228.228,0,1,0,0,.455Z" transform="translate(-141.161 -162.352)"/><path class="b" d="M106.928,214.822l-1.138.683a.228.228,0,1,0,.234.39l1.138-.683a.228.228,0,1,0-.234-.39Z" transform="translate(-105.388 -211.133)"/><path class="b" d="M119.681,169.694l.005,0a.519.519,0,0,0,.105.214.447.447,0,0,0,.388.151.628.628,0,0,0,.474-.249.416.416,0,0,0,.048.028.431.431,0,0,0,.4-.013.864.864,0,0,0,.408-.8.233.233,0,0,0-.237-.216.228.228,0,0,0-.218.236s.005.273-.16.373a.555.555,0,0,1-.071-.192.228.228,0,0,0-.452.038c0,.033-.007.325-.233.35a.556.556,0,0,1,0-.3.228.228,0,0,0-.349-.241l-.127.086c-.06-1.32-.2-2.859-.2-2.878a.228.228,0,1,0-.453.041c0,.021.163,1.8.212,3.16l-.035.034a.587.587,0,0,0-.5-.392.831.831,0,0,0-.8.507.538.538,0,0,0,.174.679.759.759,0,0,0,.679.031,1.9,1.9,0,0,1-.37.7.955.955,0,0,1-.727.371.6.6,0,0,1-.442-.188,1.3,1.3,0,0,1-.241-.815.228.228,0,0,0-.215-.239.223.223,0,0,0-.24.215,1.746,1.746,0,0,0,.357,1.144,1.044,1.044,0,0,0,.762.338h.046a1.387,1.387,0,0,0,1.045-.53,2.355,2.355,0,0,0,.521-1.167,2.58,2.58,0,0,1-1.092,2.044,1.137,1.137,0,0,1-1.14.083.977.977,0,0,1-.5-.963.228.228,0,1,0-.452-.056,1.43,1.43,0,0,0,.751,1.427,1.547,1.547,0,0,0,.689.164,1.685,1.685,0,0,0,.893-.269,3.027,3.027,0,0,0,1.307-2.433C119.688,170.023,119.685,169.863,119.681,169.694Zm-1.373.235c-.041-.027-.009-.113,0-.13a.387.387,0,0,1,.318-.224h.018c.029,0,.106.01.14.182,0,.018.007.037.009.056C118.537,169.963,118.367,169.967,118.308,169.929Z" transform="translate(-115.071 -165.603)"/><path class="b" d="M102.086,243.575a.228.228,0,0,0-.311.081.465.465,0,0,1-.038.054l-.007-.019a1.531,1.531,0,0,1,.007-.772.228.228,0,0,0-.44-.117,1.96,1.96,0,0,0,.007,1.05c.1.278.265.349.381.358h.031a.6.6,0,0,0,.454-.325A.227.227,0,0,0,102.086,243.575Z" transform="translate(-101.225 -237.155)"/><path class="b" d="M175.356,164.643a.226.226,0,0,0,.14-.049l1.148-.9a.221.221,0,0,0,.038-.044.57.57,0,1,0-.654-.051l-.812.638a.228.228,0,0,0,.141.407Zm1.034-1.593a.114.114,0,1,1-.114.114A.114.114,0,0,1,176.39,163.049Z" transform="translate(-170.294 -162.352)"/><path class="b" d="M185.485,190.443a.227.227,0,0,0-.288.144.7.7,0,0,0,.089.671.459.459,0,0,0,.34.13,1,1,0,0,0,.314-.058.228.228,0,1,0-.144-.432.788.788,0,0,1-.186.04.436.436,0,0,1,.019-.208A.227.227,0,0,0,185.485,190.443Z" transform="translate(-179.658 -188.368)"/><path class="b" d="M227.779,163.349a.228.228,0,0,0,.282-.155l.133-.455a.228.228,0,1,0-.437-.128l-.133.455A.228.228,0,0,0,227.779,163.349Z" transform="translate(-219.347 -162.215)"/><path class="b" d="M206.054,160a.228.228,0,1,0,.23-.393c-.046-.027-.04-.1-.038-.117a.179.179,0,0,1,.1-.152.228.228,0,0,0-.135-.435.625.625,0,0,0-.421.535A.561.561,0,0,0,206.054,160Z" transform="translate(-198.949 -158.898)"/><path class="b" d="M178.982,232.189a.228.228,0,0,0-.043.451.428.428,0,0,1,.043.232.228.228,0,0,0,.455,0C179.437,232.2,179,232.189,178.982,232.189Z" transform="translate(-173.682 -227.394)"/><path class="b" d="M234.879,208.48a.524.524,0,0,0,.086.007.778.778,0,0,0,.539-.269.228.228,0,0,0-.322-.322c-.136.136-.209.139-.228.135-.043-.006-.083-.063-.092-.078a.228.228,0,0,0-.406.206A.615.615,0,0,0,234.879,208.48Z" transform="translate(-225.717 -204.628)"/><path class="b" d="M294.032,190.979l0-.01a.228.228,0,0,0-.431.146.51.51,0,0,0,.37.355.377.377,0,0,0,.05,0,.557.557,0,0,0,.44-.3.228.228,0,1,0-.379-.252A.7.7,0,0,1,294.032,190.979Z" transform="translate(-281.001 -188.727)"/><path class="b" d="M205.777,171.985c0-.971-.043-1.881-.1-2.679a11.525,11.525,0,0,1,.8,1.621.228.228,0,0,0,.213.148.23.23,0,0,0,.08-.014.228.228,0,0,0,.133-.293,15.077,15.077,0,0,0-1.317-2.5c-.124-1.226-.264-2-.266-2.019a.228.228,0,0,0-.448.081c0,.01.074.411.159,1.086-.175-.259-.337-.494-.474-.686l.011,0a.228.228,0,1,0,.144-.432l-.683-.228a.226.226,0,0,0-.257.083.229.229,0,0,0-.033.07.5.5,0,0,0-.475-.114.387.387,0,0,0-.218.405,2.057,2.057,0,0,0,.157.645c.134.38.218.659.076.792a.249.249,0,0,1-.233.082c-.14-.036-.279-.223-.372-.5a.214.214,0,0,0-.018-.032,3.872,3.872,0,0,0-.069-1.26.228.228,0,1,0-.446.089,2.167,2.167,0,0,1-.119,1.622.409.409,0,0,1-.34.154.131.131,0,0,1-.109-.051,2.194,2.194,0,0,1-.121-1.283.228.228,0,0,0-.225-.26c-.392,0-.54.445-.671.839-.057.173-.165.494-.239.527-.138,0-.227-.4-.228-.683a.228.228,0,0,0-.228-.227h0a.227.227,0,0,0-.227.227c0,.525.179,1.138.683,1.138.375,0,.527-.409.655-.789a1.427,1.427,0,0,0,.258.809.584.584,0,0,0,.453.208.866.866,0,0,0,.692-.321,1.052,1.052,0,0,0,.085-.126.849.849,0,0,0,.477.358.658.658,0,0,0,.161.02.722.722,0,0,0,.5-.212.668.668,0,0,0,.076-.092.614.614,0,0,0,.168.025.921.921,0,0,0,.472-.145.228.228,0,0,0-.244-.384.483.483,0,0,1-.258.068,2.349,2.349,0,0,0-.172-.748,3.162,3.162,0,0,1-.118-.381c.019.016.037.032.053.048a.227.227,0,0,0,.322,0,.219.219,0,0,0,.033-.05c.236.325.721,1.008,1.221,1.8.1.968.179,2.2.179,3.557a.228.228,0,0,0,.455,0Z" transform="translate(-193.192 -165.597)"/><path class="b" d="M293.814,166.986a.228.228,0,1,0,.455,0,2.323,2.323,0,0,0-.252-.785.228.228,0,0,0-.407.2A2.022,2.022,0,0,1,293.814,166.986Z" transform="translate(-281.002 -165.606)"/><path class="b" d="M263.51,250.069a.227.227,0,0,0-.306.1.651.651,0,0,1-.094.135,1.272,1.272,0,0,1,.06-.421.228.228,0,0,0-.379-.228l-.455.455a.228.228,0,1,0,.322.322l.012-.012a.47.47,0,0,0,.122.239.416.416,0,0,0,.3.131.4.4,0,0,0,.063-.005.741.741,0,0,0,.461-.412A.227.227,0,0,0,263.51,250.069Z" transform="translate(-251.734 -243.656)"/><path class="b" d="M172.358,205.957h-1.6q.021-.085.044-.162c.64-.133,1.02-.34,1.132-.615a.509.509,0,0,0-.086-.511.564.564,0,0,0-.575-.245c-.324.066-.612.414-.819.972a2.616,2.616,0,0,0-1.314.568,3.527,3.527,0,0,0-.472-1.513.228.228,0,0,0-.379.252,3.287,3.287,0,0,1,.417,1.695,1.8,1.8,0,0,1-1.366,1.821c-.256,0-.368-.3-.417-.561a2.614,2.614,0,0,0,1.093-1.205,1.811,1.811,0,0,0-.151-1.234l-.017-.04.014.014a.228.228,0,0,0,.322-.322c-.133-.133-.391-.342-.626-.244a.387.387,0,0,0-.218.405.968.968,0,0,0,.106.366,1.376,1.376,0,0,1,.128.945,1.926,1.926,0,0,1-.745.822.224.224,0,0,0-.172-.084h0a.227.227,0,0,0-.227.227c0,.041,0,.085,0,.13a11.967,11.967,0,0,1-1.465.8.228.228,0,0,0,.094.435.225.225,0,0,0,.094-.02,13.122,13.122,0,0,0,1.36-.728.886.886,0,0,0,.823.748,1.934,1.934,0,0,0,1.523-1.113,1.326,1.326,0,0,0,.152.217,2.566,2.566,0,0,0,1.74.668.228.228,0,0,0,.016-.455.487.487,0,0,1-.284-.138.39.39,0,0,1-.075-.3c.023-.281.928-.49,1.726-.5a.228.228,0,0,0,.211-.151l.228-.64a.228.228,0,0,0-.214-.3Zm-1-1.087.017,0c.022,0,.056.011.1.073.009.012.036.051.029.068-.026.064-.183.171-.511.267C171.141,205,171.281,204.886,171.359,204.87Zm-1.375,2.992a1.394,1.394,0,0,1-.63-.383.968.968,0,0,1-.2-.8.671.671,0,0,1,.048-.1c.321-.029,1.177.1,1.236.342a.764.764,0,0,0-.481.594A.959.959,0,0,0,169.984,207.863Z" transform="translate(-160.67 -201.376)"/><path class="b" d="M291.917,166.909l-.228-.683a.228.228,0,0,0-.443.095c.157,1.571.454,4.634.454,4.986,0,.315-.561.937-1.468,1.39a.228.228,0,0,0,.2.407c.828-.414,1.719-1.153,1.719-1.8,0-.336-.233-2.756-.366-4.116A.228.228,0,0,0,291.917,166.909Z" transform="translate(-277.75 -165.601)"/><path class="b" d="M336.1,194.336a.228.228,0,0,0,.382-.217,1.148,1.148,0,0,1-.033-.442.231.231,0,0,0,.237-.2.228.228,0,0,0-.193-.258.411.411,0,0,0-.375.126.521.521,0,0,0-.115.244l-.264-.264a.228.228,0,0,0-.322.322Z" transform="translate(-320.03 -190.974)"/><path class="b" d="M341.077,213.306l-.854.612a.228.228,0,1,0,.265.37l.854-.612a.228.228,0,1,0-.265-.37Z" transform="translate(-324.5 -209.706)"/><path class="b" d="M352.79,225.75a.228.228,0,0,0,.02.3.631.631,0,0,1,.046.328.228.228,0,0,0,.219.236h.008a.228.228,0,0,0,.227-.219c.017-.465-.135-.634-.2-.686A.228.228,0,0,0,352.79,225.75Z" transform="translate(-336.288 -221.294)"/><path class="b" d="M325.506,171.739a.228.228,0,0,0,.228-.228c0-.336-.017-.711-.045-1.1a8.3,8.3,0,0,1,.533.991.227.227,0,0,0,.209.138.225.225,0,0,0,.09-.018.228.228,0,0,0,.119-.3,12.529,12.529,0,0,0-1.042-1.8c-.089-.836-.206-1.654-.3-2.242a.22.22,0,0,0,.142-.035.225.225,0,0,0,.1-.206.222.222,0,0,0,.025.065.828.828,0,0,1,.083.557.228.228,0,0,0,.177.269.24.24,0,0,0,.046,0,.228.228,0,0,0,.223-.182,1.29,1.29,0,0,0-.145-.894.228.228,0,0,0-.314-.07.225.225,0,0,0-.1.206.222.222,0,0,0-.026-.066l-.384-.6a.228.228,0,0,0-.416.163c0,.018.177,1.017.331,2.221-.175-.246-.349-.488-.518-.717-.027-.344-.055-.663-.079-.926a.233.233,0,0,0,.037-.015.228.228,0,0,0,.1-.305l-.228-.455a.228.228,0,0,0-.43.124c.027.272.055.572.083.888-.144-.19-.277-.364-.391-.511a.228.228,0,0,0-.047-.376l-.455-.228a.228.228,0,0,0-.28.346c.012.015.573.718,1.243,1.625a18.3,18.3,0,0,1,.084,3.4c-.02.06-.055.131-.088.133-.138.019-.466-.288-.631-.618a.317.317,0,0,0-.3-.206c-.245.015-.34.284-.514.773a3.206,3.206,0,0,1-.452.964,2.587,2.587,0,0,1-.283-.9.226.226,0,0,0,.44-.077c0-.34-.237-2.925-.37-4.342a.228.228,0,0,0,.131-.283l-.228-.683a.228.228,0,0,0-.443.094c.155,1.624.445,4.761.454,5.194l0-.012a.228.228,0,1,0-.451.064c.066.465.236,1.265.628,1.4a.379.379,0,0,0,.121.02.447.447,0,0,0,.32-.148,3.283,3.283,0,0,0,.564-1.137c.034-.094.073-.206.11-.3.209.3.573.685.942.655a.559.559,0,0,0,.487-.443,12.819,12.819,0,0,0-.008-2.842c.192.269.384.544.567.816.071.682.122,1.365.122,1.926A.228.228,0,0,0,325.506,171.739Z" transform="translate(-307.017 -165.607)"/><path class="b" d="M383.062,170.945c-.161-1.2-.386-2.593-.528-3.447a.224.224,0,0,0,.191-.041.227.227,0,0,0,.043-.319l-.413-.541a.228.228,0,0,0-.405.177c0,.023.41,2.36.661,4.231a2.134,2.134,0,0,1-.375,1.708,1.007,1.007,0,0,1-.835.311.228.228,0,1,0-.029.454c.038,0,.076,0,.114,0a1.437,1.437,0,0,0,1.083-.459A2.542,2.542,0,0,0,383.062,170.945Z" transform="translate(-362.846 -166.01)"/><path class="b" d="M371.075,256.2a.231.231,0,0,0,.011.32.1.1,0,0,1,.027.047.107.107,0,0,1-.034.051.228.228,0,1,0,.322.322.517.517,0,0,0,.168-.388.541.541,0,0,0-.179-.371A.226.226,0,0,0,371.075,256.2Z" transform="translate(-353.363 -249.769)"/><path class="b" d="M158.071,327.075h-1.593v-.228a.228.228,0,0,0-.455,0v.228H143.957a3.178,3.178,0,0,0,2.049.683h10.016v.455a.228.228,0,0,0,.228.228h1.821a.683.683,0,1,0,0-1.366Zm0,.911h-1.594v-.228H158.3l-.041-.123a.221.221,0,0,1,.041.123A.228.228,0,0,1,158.071,327.986Z" transform="translate(-141.161 -315.648)"/></g></g></svg>