<svg xmlns="http://www.w3.org/2000/svg" width="18" height="18" viewBox="0 0 18 18">
  <g id="settingw" transform="translate(-1555 -295)">
    <rect id="Rectangle_10071" data-name="Rectangle 10071" width="18" height="18" transform="translate(1555 295)" fill="#fff" opacity="0"/>
    <g id="noun_Settings_912772" transform="translate(1550.353 292.009)">
      <g id="Group_14099" data-name="Group 14099" transform="translate(6.004 4)">
        <path id="Path_16761" data-name="Path 16761" d="M12.6,956.362a1.225,1.225,0,0,0-1.216,1.216v.765a6.386,6.386,0,0,0-1.878,1.129l-.689-.38a1.227,1.227,0,0,0-1.656.472l-1.01,1.824a1.227,1.227,0,0,0,.467,1.656l.689.385a4.53,4.53,0,0,0,.005,1.846l-.695.385a1.221,1.221,0,0,0-.467,1.65l1.01,1.824a1.229,1.229,0,0,0,1.656.478l.695-.385a6.383,6.383,0,0,0,1.873,1.129v.771a1.225,1.225,0,0,0,1.216,1.216H14.69a1.225,1.225,0,0,0,1.216-1.216v-.771a6.383,6.383,0,0,0,1.873-1.129l.695.385a1.229,1.229,0,0,0,1.656-.478l1.01-1.824a1.22,1.22,0,0,0-.467-1.65l-.695-.385a4.53,4.53,0,0,0,.005-1.846l.689-.385a1.227,1.227,0,0,0,.467-1.656l-1.01-1.824a1.227,1.227,0,0,0-1.656-.472l-.689.38a6.386,6.386,0,0,0-1.878-1.129v-.765a1.225,1.225,0,0,0-1.216-1.216H12.6Zm0,1.042H14.69a.163.163,0,0,1,.174.174v1.129a.536.536,0,0,0,.369.494,5.368,5.368,0,0,1,2.144,1.27.536.536,0,0,0,.619.081l.988-.548a.16.16,0,0,1,.233.065l1.01,1.824a.164.164,0,0,1-.065.239l-.988.548a.536.536,0,0,0-.255.559,5.463,5.463,0,0,1,0,2.22.536.536,0,0,0,.255.565l.988.548a.159.159,0,0,1,.065.233l-1.01,1.824a.161.161,0,0,1-.233.071L18,968.153a.536.536,0,0,0-.619.076,5.368,5.368,0,0,1-2.144,1.27.536.536,0,0,0-.369.5v1.129a.163.163,0,0,1-.174.174H12.6a.163.163,0,0,1-.174-.174V970a.537.537,0,0,0-.369-.5,5.368,5.368,0,0,1-2.144-1.27.536.536,0,0,0-.619-.076l-.988.548a.161.161,0,0,1-.233-.071l-1.01-1.824a.159.159,0,0,1,.065-.233l.988-.548a.536.536,0,0,0,.255-.565,5.463,5.463,0,0,1,0-2.22.536.536,0,0,0-.255-.559l-.988-.548a.164.164,0,0,1-.065-.239l1.01-1.824A.159.159,0,0,1,8.311,960l.988.548a.536.536,0,0,0,.619-.081,5.367,5.367,0,0,1,2.144-1.27.536.536,0,0,0,.369-.494v-1.129a.163.163,0,0,1,.174-.174Zm1.042,3.3a3.648,3.648,0,1,0,3.648,3.648A3.656,3.656,0,0,0,13.647,960.7Zm0,1.042a2.606,2.606,0,1,1-2.606,2.606A2.6,2.6,0,0,1,13.647,961.747Z" transform="translate(-6.004 -956.362)" fill="#fff"/>
      </g>
    </g>
  </g>
</svg>
