<svg xmlns="http://www.w3.org/2000/svg" width="38" height="38" viewBox="0 0 38 38"><defs><style>.a{fill:#efefef;}.b{fill:#6b6b6b;}</style></defs><g transform="translate(3 3)"><circle class="a" cx="19" cy="19" r="19" transform="translate(-3 -3)"/><g transform="translate(0.997 3)"><g transform="translate(6.004 4)"><path class="b" d="M13.85,956.362a1.456,1.456,0,0,0-1.445,1.445v.91a7.59,7.59,0,0,0-2.233,1.342l-.82-.452a1.459,1.459,0,0,0-1.968.561l-1.2,2.168a1.458,1.458,0,0,0,.555,1.968l.82.458a5.385,5.385,0,0,0,.006,2.194l-.826.458a1.451,1.451,0,0,0-.555,1.962l1.2,2.168a1.461,1.461,0,0,0,1.968.568l.826-.458A7.587,7.587,0,0,0,12.4,973v.916a1.456,1.456,0,0,0,1.445,1.445h2.478a1.456,1.456,0,0,0,1.445-1.445V973A7.587,7.587,0,0,0,20,971.656l.826.458a1.461,1.461,0,0,0,1.968-.568l1.2-2.168a1.451,1.451,0,0,0-.555-1.962l-.826-.458a5.385,5.385,0,0,0,.006-2.194l.82-.458a1.458,1.458,0,0,0,.555-1.968l-1.2-2.168a1.459,1.459,0,0,0-1.968-.561l-.82.452a7.59,7.59,0,0,0-2.233-1.342v-.91a1.456,1.456,0,0,0-1.445-1.445H13.85Zm0,1.239h2.478a.194.194,0,0,1,.206.207v1.342a.637.637,0,0,0,.439.587,6.381,6.381,0,0,1,2.549,1.51.637.637,0,0,0,.736.1l1.174-.652a.19.19,0,0,1,.277.078l1.2,2.168a.2.2,0,0,1-.077.284l-1.174.652a.637.637,0,0,0-.3.665,6.494,6.494,0,0,1,0,2.639.637.637,0,0,0,.3.671l1.174.652a.188.188,0,0,1,.077.277l-1.2,2.168a.192.192,0,0,1-.277.084l-1.174-.652a.638.638,0,0,0-.736.09,6.381,6.381,0,0,1-2.549,1.51.637.637,0,0,0-.439.594v1.342a.194.194,0,0,1-.206.207H13.85a.194.194,0,0,1-.206-.207v-1.342a.638.638,0,0,0-.439-.594,6.381,6.381,0,0,1-2.549-1.51.638.638,0,0,0-.736-.09l-1.174.652a.191.191,0,0,1-.277-.084l-1.2-2.168a.188.188,0,0,1,.077-.277l1.174-.652a.637.637,0,0,0,.3-.671,6.494,6.494,0,0,1,0-2.639.637.637,0,0,0-.3-.665l-1.174-.652a.2.2,0,0,1-.077-.284l1.2-2.168a.189.189,0,0,1,.277-.078l1.174.652a.637.637,0,0,0,.736-.1,6.381,6.381,0,0,1,2.549-1.51.637.637,0,0,0,.439-.587v-1.342a.194.194,0,0,1,.206-.207Zm1.239,3.923a4.336,4.336,0,1,0,4.336,4.336A4.346,4.346,0,0,0,15.089,961.524Zm0,1.239a3.1,3.1,0,1,1-3.1,3.1A3.088,3.088,0,0,1,15.089,962.763Z" transform="translate(-6.004 -956.362)"/></g></g></g></svg>