<svg xmlns="http://www.w3.org/2000/svg" width="96.316" height="90.317" viewBox="0 0 96.316 90.317">
  <g id="surface1" transform="translate(-1159 -1050)">
    <rect id="Rectangle_1906" data-name="Rectangle 1906" width="82.317" height="82.317" rx="41" transform="translate(1159 1058)" fill="#df2b5c"/>
    <rect id="Rectangle_4083" data-name="Rectangle 4083" width="82.317" height="82.317" rx="41" transform="translate(1173 1050)" fill="#df2b5c" opacity="0.16"/>
    <g id="surface1-2" data-name="surface1" transform="translate(1182.16 1078.024)">
      <path id="Path_5329" data-name="Path 5329" d="M128.5,158.457a8.054,8.054,0,1,0,8.054,8.054A8.063,8.063,0,0,0,128.5,158.457Zm4.782,6.537-5.77,5.77a1.24,1.24,0,0,1-1.754,0l-2.2-2.2a1.24,1.24,0,1,1,1.754-1.754l1.328,1.328,4.893-4.893a1.24,1.24,0,0,1,1.754,1.754Zm0,0" transform="translate(-110.497 -145.376)" fill="#fff"/>
      <path id="Path_5330" data-name="Path 5330" d="M35.954,11.468v-.033c-.018-.406-.031-.836-.038-1.314A4.48,4.48,0,0,0,31.7,5.733,17.384,17.384,0,0,1,19.864.746L19.837.72a2.705,2.705,0,0,0-3.677,0l-.027.026A17.386,17.386,0,0,1,4.3,5.733,4.48,4.48,0,0,0,.082,10.122c-.007.475-.02.9-.038,1.313l0,.076c-.094,4.956-.212,11.124,1.851,16.722A21.287,21.287,0,0,0,7,36.188,26.715,26.715,0,0,0,16.994,42.1a3.1,3.1,0,0,0,.41.112,3.025,3.025,0,0,0,1.189,0A3.105,3.105,0,0,0,19,42.1a26.732,26.732,0,0,0,9.983-5.914,21.316,21.316,0,0,0,5.107-7.956C36.166,22.613,36.049,16.434,35.954,11.468ZM18,31.67A10.535,10.535,0,1,1,28.533,21.135,10.546,10.546,0,0,1,18,31.67Zm0,0" fill="#fff"/>
    </g>
  </g>
</svg>
