<svg xmlns="http://www.w3.org/2000/svg" width="18.14" height="16.864" viewBox="0 0 18.14 16.864"><defs><style>.a{fill:#8d8d8d;}</style></defs><g transform="translate(0 0)"><path class="a" d="M15.305,0H2.834A2.838,2.838,0,0,0,0,2.834v9.92a2.838,2.838,0,0,0,2.834,2.834h9.672a.709.709,0,1,0,0-1.417H9.9L8.267,12.058,13.43,5.491l3.476,3.841a.708.708,0,0,0,1.234-.475V2.834A2.838,2.838,0,0,0,15.305,0Zm1.417,7.018-2.8-3.1a.709.709,0,0,0-1.083.038L7.375,10.9,5.521,8.5a.709.709,0,0,0-.561-.276h0A.709.709,0,0,0,4.4,8.5L2.839,10.523a.709.709,0,0,0,1.123.864l1-1.3,3.147,4.082H2.834a1.419,1.419,0,0,1-1.417-1.417V2.834A1.419,1.419,0,0,1,2.834,1.417H15.305a1.419,1.419,0,0,1,1.417,1.417Zm0,0"/><path class="a" d="M82.126,72a2.126,2.126,0,1,0,2.126,2.126A2.128,2.128,0,0,0,82.126,72Zm0,2.834a.709.709,0,1,1,.709-.709A.709.709,0,0,1,82.126,74.834Zm0,0" transform="translate(-77.166 -69.449)"/><path class="a" d="M357.091,288.529l-.006-.006a1.766,1.766,0,0,0-2.506,0l-1.368,1.349a.709.709,0,0,0,1,1.009l.916-.9v3.977a.709.709,0,0,0,1.417,0V290l.876.905a.709.709,0,1,0,1.018-.986Zm0,0" transform="translate(-340.493 -277.796)"/></g></svg>