<svg xmlns="http://www.w3.org/2000/svg" width="15.342" height="9.779" viewBox="0 0 15.342 9.779"><defs><style>.a{fill:#8d8d8d;}</style></defs><g transform="translate(0 0)"><path class="a" d="M15.245,97.426c-.137-.187-3.4-4.591-7.574-4.591S.234,97.238.1,97.426a.506.506,0,0,0,0,.6c.137.187,3.4,4.591,7.574,4.591s7.437-4.4,7.574-4.591A.506.506,0,0,0,15.245,97.426ZM7.671,101.6c-3.072,0-5.733-2.923-6.521-3.878.787-.956,3.442-3.877,6.521-3.877s5.733,2.922,6.521,3.878C13.405,98.681,10.75,101.6,7.671,101.6Z" transform="translate(0 -92.835)"/></g><g transform="translate(4.636 1.855)"><g transform="translate(0 0)"><path class="a" d="M157.757,154.725a3.035,3.035,0,1,0,3.035,3.035A3.038,3.038,0,0,0,157.757,154.725Zm0,5.058a2.023,2.023,0,1,1,2.023-2.023A2.025,2.025,0,0,1,157.757,159.783Z" transform="translate(-154.722 -154.725)"/></g></g></svg>