<svg xmlns="http://www.w3.org/2000/svg" width="82" height="82" viewBox="0 0 82 82"><defs><style>.a{fill:#f23737;}.b{fill:#c82d2d;}.c{fill:#fff;}</style></defs><g transform="translate(0.147 0.146)"><circle class="a" cx="41" cy="41" r="41" transform="translate(-0.147 -0.146)"/><path class="b" d="M207.714,165.66,184.99,142.936l-34.742,36.02,22.494,22.494A40.869,40.869,0,0,0,207.714,165.66Z" transform="translate(-126.274 -120.129)"/><g transform="translate(22.424 21.972)"><path class="c" d="M174.676,175.031a3.185,3.185,0,0,1-2.258-.935l-30.937-30.938A3.192,3.192,0,0,1,146,138.644l30.938,30.938a3.192,3.192,0,0,1-2.258,5.449Z" transform="translate(-140.545 -137.709)"/><path class="c" d="M143.731,175.029a3.192,3.192,0,0,1-2.258-5.449l30.938-30.938a3.192,3.192,0,0,1,4.514,4.514l-30.937,30.938A3.183,3.183,0,0,1,143.731,175.029Z" transform="translate(-140.538 -137.706)"/></g></g></svg>